<svg width="246" height="104" viewBox="0 0 246 104" fill="none" xmlns="http://www.w3.org/2000/svg">
<g id="Zara_logo_PNG3 1">
<g id="#000000ff">
<path id="Vector" d="M90.9317 73.5976C96.472 58.6776 102.008 43.7568 107.547 28.8377C107.658 28.8377 107.768 28.8377 107.879 28.8377C112.232 40.5916 116.585 52.3455 120.941 64.0986C120.941 52.9578 120.942 41.817 120.941 30.6761C119.149 30.6753 117.358 30.677 115.567 30.6753C115.567 30.5653 115.567 30.4553 115.567 30.3453C121.678 30.3445 127.788 30.3453 133.899 30.3453C137.275 30.3306 140.734 30.9411 143.689 32.6038C145.845 33.8101 147.685 35.6694 148.555 37.9755C149.299 39.9594 149.411 42.2222 148.61 44.2079C147.731 46.4266 145.888 48.162 143.796 49.3051C141.844 50.3676 139.661 51.0067 137.443 51.2284C140.557 51.4856 143.737 52.1568 146.377 53.8714C146.823 54.1606 147.247 54.481 147.648 54.8257C150.867 46.1633 154.079 37.4992 157.297 28.8368C157.406 28.8377 157.516 28.8377 157.628 28.8385C163.162 43.794 168.714 58.7425 174.238 73.7015C176.158 73.724 178.079 73.7067 179.999 73.7136C179.997 73.821 179.997 73.9292 179.998 74.0383C173.898 74.0383 167.796 74.0401 161.695 74.0375C161.695 73.9569 161.696 73.7941 161.696 73.7136C163.491 73.7127 165.287 73.7136 167.082 73.7127C165.263 68.7983 163.442 63.8839 161.622 58.9694C157.926 58.9686 154.231 58.9686 150.535 58.9686C150.993 60.2597 151.235 61.6228 151.244 62.9893C151.245 64.6606 151.244 66.3311 151.244 68.0025C151.213 69.2183 151.3 70.454 151.714 71.6093C152.068 72.6077 152.661 73.6053 153.639 74.1223C154.381 74.5233 155.274 74.486 156.078 74.312C157.145 74.0756 158.055 73.4278 158.848 72.7151C158.911 72.7749 158.975 72.8355 159.041 72.897C158.441 73.5179 157.735 74.0479 156.937 74.3986C155.756 74.926 154.442 75.0792 153.156 75.0818C151.648 75.0879 150.115 74.8143 148.774 74.1189C147.671 73.5534 146.732 72.7021 146.039 71.6915C144.785 69.8617 144.257 67.6535 144.043 65.4859C143.029 68.2285 142.009 70.9684 140.992 73.7093C142.437 73.711 143.881 73.7093 145.327 73.7101C145.327 73.7907 145.327 73.9526 145.328 74.034C142.302 74.0349 139.276 74.0349 136.25 74.034C136.251 73.9526 136.251 73.7907 136.251 73.7101C137.712 73.7093 139.174 73.7101 140.635 73.7093C141.749 70.6887 142.89 67.6751 143.987 64.6494C143.873 62.6741 143.96 60.6953 143.919 58.7192C143.869 57.3024 143.449 55.8727 142.575 54.7296C141.713 53.5796 140.45 52.769 139.098 52.2745C137.441 51.6666 135.656 51.4683 133.897 51.4683C131.827 51.4692 129.757 51.4674 127.687 51.4683C127.687 58.8828 127.687 66.2973 127.687 73.711C129.491 73.7119 131.296 73.711 133.1 73.7119C133.099 73.8192 133.099 73.9275 133.099 74.0366C126.048 74.0357 118.997 74.0375 111.947 74.0357C111.948 73.9552 111.948 73.7924 111.948 73.7119C113.743 73.711 115.538 73.7119 117.334 73.711C115.514 68.7957 113.693 63.8821 111.873 58.9668C106.82 58.9668 101.767 58.966 96.7141 58.9668C94.9121 63.8284 93.1075 68.6883 91.3046 73.5491C94.054 73.1325 96.7362 71.9383 98.6434 69.918C100.861 67.6128 101.932 64.4138 101.946 61.2799C102.056 61.279 102.165 61.279 102.275 61.279C102.276 65.5318 102.275 69.7838 102.276 74.0357C90.8088 74.0375 79.3429 74.0366 67.877 74.0357C76.3858 59.5825 84.8982 45.1302 93.4071 30.6761C89.994 30.6753 86.5809 30.6761 83.1678 30.6761C81.7998 30.6735 80.4255 30.8415 79.1149 31.2347C76.8498 31.8963 74.8233 33.2966 73.4279 35.1654C71.5888 37.6014 70.7563 40.6617 70.7253 43.6658C70.6157 43.665 70.5053 43.665 70.3957 43.665C70.3957 39.2268 70.3957 34.7887 70.3957 30.3497C80.7269 30.3479 91.0589 30.3497 101.39 30.3497C92.8857 44.8055 84.3706 59.2569 75.8626 73.711C79.7105 73.7119 83.5593 73.711 87.4072 73.711C88.5826 73.7049 89.7633 73.7526 90.9317 73.5976ZM127.689 30.6761C127.689 37.4983 127.688 44.3196 127.689 51.1418C129.698 51.1427 131.706 51.1418 133.714 51.1418C134.826 51.147 135.945 51.0994 137.038 50.8829C138.285 50.6422 139.525 50.1122 140.361 49.1457C141.361 48.0079 141.754 46.4993 141.966 45.0453C142.187 43.3593 142.232 41.6516 142.131 39.9551C141.992 38.0751 141.565 36.1699 140.559 34.5427C139.807 33.3191 138.698 32.3085 137.389 31.6798C135.792 30.9004 133.979 30.6536 132.21 30.6761C130.704 30.6761 129.197 30.6753 127.689 30.6761ZM96.837 58.6412C101.808 58.6421 106.78 58.6421 111.751 58.6412C109.27 51.9368 106.786 45.2333 104.303 38.5297C101.813 45.2333 99.3257 51.9377 96.837 58.6412ZM147.917 55.063C148.996 56.0632 149.855 57.2894 150.408 58.6412C154.104 58.6421 157.8 58.6421 161.497 58.6412C159.013 51.9377 156.532 45.2341 154.047 38.5306C152.002 44.0408 149.957 49.551 147.917 55.063Z" fill="#383838"/>
</g>
</g>
</svg>
