<svg width="452" height="267" viewBox="0 0 452 267" fill="none" xmlns="http://www.w3.org/2000/svg">
<path d="M113 213.618H98.6554V244H59.4275V213.618H0V178.562L53.8653 36H91.6295L40.399 178.562H59.4275V153.438H98.6554V178.562H113V213.618Z" fill="#383838"/>
<path d="M253.04 43.5437C265.752 33.771 280.374 25.7739 296.375 23.2517C307.325 21.7788 318.772 22.9222 328.962 27.3074C338.385 31.3766 346.281 39.2458 349.59 49.0521C353.249 59.8404 352.563 72.2564 347.048 82.2981C342.434 90.6314 334.376 96.7049 325.437 99.7517C312.557 104.13 298.299 104.049 285.351 99.9803C271.584 95.6422 258.919 88.1159 248.056 78.6728C245.346 76.4398 243.321 73.5208 240.651 71.2542C239.683 72.068 238.048 72.5994 238.095 74.1127C237.934 77.6707 238.223 81.2421 238.19 84.8068C238.27 85.8762 238.069 87.0802 238.707 88.0352C241.088 88.4724 243.53 87.968 245.918 88.3581C247.693 88.654 249.086 90.3355 249.099 92.1313C249.274 96.2139 249.079 100.31 249.193 104.399C258.374 107.54 267.333 111.623 275.047 117.609C291.102 129.621 302.442 147.788 306.027 167.535C307.661 176.81 308.085 186.468 305.892 195.689C304.338 203.72 301.628 211.535 297.989 218.846C293.577 227.341 287.806 235.634 279.439 240.625C275.673 242.898 271.294 244.068 266.896 244.055C239.959 244.082 213.021 244.055 186.084 244.068C181.854 244.169 177.637 243.019 174.045 240.793C167.017 236.509 161.824 229.85 157.573 222.929C154.58 217.474 151.675 211.939 149.765 206C143.651 190.712 143.967 173.433 148.931 157.883C156.887 132.258 178.424 111.334 204.359 104.345C205.798 103.861 207.506 103.693 208.603 102.536C209.067 98.884 208.468 95.1781 208.898 91.5259C209.12 89.8243 210.647 88.432 212.342 88.3043C214.75 88.089 217.178 88.3446 219.586 88.0218C219.707 84.531 219.788 81.0336 219.673 77.5362C216.203 77.1057 212.174 76.9308 209.699 74.0925C207.217 71.0726 207.661 66.9093 207.56 63.2572C207.681 59.8001 207.237 56.1076 208.804 52.8993C210.076 50.3031 212.961 49.079 215.671 48.6351C224.529 47.337 233.818 49.4422 241.136 54.6211C244.915 50.7269 248.689 46.8192 253.04 43.5437Z" fill="#F62559"/>
<path d="M179.034 46.1735C180.783 45.6354 182.599 46.2273 184.132 47.0949C187.146 48.7764 190.118 50.5318 193.138 52.2066C194.806 53.1684 196.676 54.1974 197.416 56.0941C198.842 59.1947 196.784 63.2504 193.394 63.8289C190.286 64.5149 187.764 62.1541 185.188 60.856C182.269 59.0199 178.96 57.7352 176.371 55.4215C173.505 52.563 175.1 47.0882 179.034 46.1735Z" fill="#F62559"/>
<path d="M189.746 71.1197C192.571 69.6265 196.351 71.1533 197.461 74.106C198.618 76.756 197.266 79.9507 194.784 81.2825C190.937 83.5289 187.076 85.7619 183.155 87.8805C180.303 89.5284 176.207 87.9612 175.259 84.7934C174.122 82.0358 175.689 78.8813 178.245 77.59C182.072 75.4242 185.839 73.1307 189.746 71.1197Z" fill="#F62559"/>
<circle cx="199.5" cy="160" r="11" fill="white"/>
<circle cx="250.5" cy="160" r="11" fill="white"/>
<path d="M192.5 208.5V208.5C212.273 193.931 239.227 193.931 259 208.5V208.5" stroke="white" stroke-width="8" stroke-linecap="round"/>
<path d="M452 213.618H437.655V244H398.427V213.618H339V178.562L392.865 36H430.63L379.399 178.562H398.427V153.438H437.655V178.562H452V213.618Z" fill="#383838"/>
</svg>
