<svg width="1657" height="831" viewBox="0 0 1657 831" fill="none" xmlns="http://www.w3.org/2000/svg">
<path opacity="0.32" d="M1655.56 441.978C1573.56 489.144 1264.16 627.878 1210.56 503.478C1143.56 347.978 1559.56 338.978 1361.06 144.978C1162.56 -49.0222 765.559 -56.0222 644.059 179.478C522.559 414.978 360.059 410.478 178.059 414.978C32.4586 418.578 -0.608048 655.478 1.05858 773.478M0.999985 388.5C83 341.333 392.4 202.6 446 327C513 482.5 97 491.5 295.5 685.5C494 879.5 891 886.5 1012.5 651C1134 415.5 1296.5 420 1478.5 415.5C1624.1 411.9 1657.17 175 1655.5 57" stroke="#CDCDD0" stroke-width="2"/>
</svg>
