<svg width="124" height="54" viewBox="0 0 124 54" fill="none" xmlns="http://www.w3.org/2000/svg">
<g id="ferrari-2 1">
<g id="Group">
<path id="Vector" fill-rule="evenodd" clip-rule="evenodd" d="M2 39.6632V37.1703H3.39065C4.08565 37.1703 5.47694 37.0317 5.47694 35.3696V20.4109C5.47694 19.5105 5.40706 17.3637 3.66891 17.3637H2.06989L3.87792 14.178H110.853V17.3637H12.4308C11.5268 17.3637 10.3445 17.5712 10.3445 19.372V24.0813C10.5535 24.6349 11.3877 24.8424 11.8051 24.8424C12.2224 24.8424 13.6823 24.7735 13.6823 22.4881H15.7686V30.1756H13.6823C13.6823 29.4828 12.9142 28.3225 11.8749 28.2363C11.0402 28.1674 10.3445 28.4439 10.3445 29.5524V35.3696C10.3445 35.9934 11.1094 37.1703 12.9175 37.1703H14.1696V39.6632H2Z" fill="#383838"/>
<path id="Vector_2" fill-rule="evenodd" clip-rule="evenodd" d="M63.7356 20.9645C63.7356 21.5188 64.4306 22.0724 64.8473 22.211C65.3346 21.8649 67.9075 20.4109 69.9239 20.4109C71.9404 20.4109 72.9829 21.4492 72.9829 23.0424V30.6603H68.1153V24.7741C68.1153 24.0123 67.9075 23.4581 67.2113 23.3891C66.5162 23.3201 64.7082 24.7741 64.2222 25.4669V35.9935C64.2222 36.9634 65.1955 37.6556 66.0303 37.6556V39.6645H57.5472V37.5866C58.3814 37.5866 59.2854 37.3095 59.3553 36.0631V24.3578C59.3553 24.0117 58.7988 23.0417 57.5472 23.0417V20.9645H63.7356ZM121.951 20.9645H113.469V23.0424C114.72 23.0424 115.275 24.0117 115.275 24.3584V36.0624C115.207 37.3089 114.302 37.586 113.469 37.586V39.6638H121.951V37.655C121.117 37.655 120.143 36.9628 120.143 35.9928V24.4963C120.143 23.6656 121.047 23.0424 121.951 23.0424V20.9645ZM44.9609 20.9645C44.9609 21.5188 45.6559 22.0724 46.0733 22.211C46.5599 21.8649 49.1328 20.4109 51.1492 20.4109C53.1656 20.4109 54.2088 21.4492 54.2088 23.0424V30.6603H49.3418V24.7741C49.3418 24.0123 49.1328 23.4581 48.4378 23.3891C47.7422 23.3201 45.9341 24.7741 45.4475 25.4669V35.9935C45.4475 36.9634 46.4214 37.6556 47.2556 37.6556V39.6645H38.7725V37.5866C39.6067 37.5866 40.5107 37.3095 40.5806 36.0631V24.3578C40.5806 24.0117 40.0241 23.0417 38.7725 23.0417V20.9645H44.9609ZM101.368 20.9645C101.368 21.5188 102.064 22.0724 102.481 22.211C102.968 21.8649 105.54 20.4109 107.557 20.4109C109.574 20.4109 110.616 21.4492 110.616 23.0424V30.6603H105.749V24.7741C105.749 24.0123 105.54 23.4581 104.845 23.3891C104.15 23.3201 102.342 24.7741 101.854 25.4669V35.9935C101.854 36.9634 102.828 37.6556 103.662 37.6556V39.6645H95.1787V37.5866C96.0141 37.5866 96.9182 37.3095 96.9868 36.0631V24.3578C96.9868 24.0117 96.4309 23.0417 95.1787 23.0417V20.9645H101.368ZM35.1007 33.846H30.2331V35.7163C30.2331 36.4775 30.094 38.0713 27.7993 38.0713C25.5046 38.0713 24.8096 36.5471 24.8096 35.4392V31.4917C24.8096 31.1456 25.0879 30.6603 25.5745 30.6603H35.1007V25.6049C35.1007 23.3195 34.6141 22.6267 33.6402 21.6573C32.6669 20.6874 29.2592 20.4109 27.7294 20.4109C23.8357 20.4109 22.5836 20.9645 21.4712 21.8649C20.3588 22.7652 19.9414 24.6349 19.9414 26.0199V33.8454C19.9414 35.9226 20.3588 37.3772 21.6796 38.6932C23.0003 40.0093 27.0338 40.0093 27.8685 40.0093C28.7027 40.0093 31.484 40.0783 33.501 38.6243C35.5181 37.1703 35.1007 33.846 35.1007 33.846ZM24.8096 25.2588C24.8096 24.1509 25.1571 22.4887 27.5909 22.4887C30.0247 22.4887 30.2331 24.2894 30.2331 25.2588V27.7517C30.2331 28.1667 29.8856 28.5824 29.399 28.5824H25.6438C25.227 28.5824 24.8096 28.2363 24.8096 27.8213V25.2588ZM90.8689 35.9928V25.6049C90.8689 24.0117 90.799 22.3502 89.1295 21.1727C87.4612 19.9952 84.7492 20.0648 83.706 20.0648C82.6629 20.0648 79.1866 20.0648 77.5863 21.8655C75.9873 23.6662 76.2649 25.3973 76.2649 26.0895H80.8202C80.8202 26.0895 81.1318 23.7352 81.7582 23.112C82.3878 22.4849 84.0535 21.7959 85.3397 22.9038C85.8129 23.3125 85.9994 23.8386 85.9994 24.4274V27.4049C85.9994 27.6827 85.7212 28.0978 85.3743 28.0978C85.3743 28.0978 79.0455 28.2363 77.9338 29.0677C76.822 29.8985 75.8475 30.4527 75.8475 33.4999C75.8475 36.5464 76.6124 37.7239 77.517 38.3478C78.4211 38.971 78.8385 39.6638 82.9405 39.6638H92.6757V37.655C91.8422 37.655 90.8689 36.9628 90.8689 35.9928ZM86.0007 37.1703C86.0007 37.3433 85.7224 37.5854 85.5147 37.5854H83.1155C81.4114 37.5854 80.9254 36.1314 80.9254 35.2304V32.5638C80.9254 29.9674 83.6368 30.0364 84.7146 30.0364C85.7923 30.0364 86.0007 30.9361 86.0007 31.5249V37.1703ZM117.391 17.3292C119.825 17.3292 121.797 16.5923 121.797 15.6831C121.797 14.7744 119.825 14.0369 117.391 14.0369C114.956 14.0369 112.983 14.7738 112.983 15.6831C112.983 16.5917 114.956 17.3292 117.391 17.3292Z" fill="#383838"/>
</g>
</g>
</svg>
