<svg width="108" height="62" viewBox="0 0 108 62" fill="none" xmlns="http://www.w3.org/2000/svg">
<path fill-rule="evenodd" clip-rule="evenodd" d="M85.0482 13.5435C85.0016 12.6045 83.9417 12.5138 83.3268 12.1863C82.9694 11.8945 82.4721 12.0112 82.1834 11.6004C82.0027 10.0635 82.2181 8.32439 82.0368 6.85612C82.1846 4.79171 82.009 2.45302 81.8993 0.456048L81.6953 0.216343C79.8983 0.258277 77.8956 0.248076 76.031 0.186874L75.7912 0.305312C75.5667 0.49175 75.4803 0.781323 75.5815 1.03746C75.6827 1.46474 76.16 1.70614 76.484 1.98098C76.6539 2.11812 76.5164 2.32269 76.4305 2.44112C74.849 3.79832 73.0117 4.79511 71.3624 6.10074C70.0417 6.69122 68.9551 8.44282 67.3668 7.75261C65.2976 7.4857 63.1591 7.40636 61.0888 7.15646C57.7534 7.01932 54.3988 6.95132 50.9418 7.13776C48.4424 7.31286 46.0465 7.35083 43.6653 7.83364C42.6032 8.03311 41.5922 8.36859 40.5465 8.63663C39.1246 8.88483 37.8721 9.52688 36.6366 10.2199C33.9423 11.7245 31.1213 14.4406 30.6433 17.5607C30.1393 19.0086 30.6098 20.5805 31.1514 21.8635C31.3202 22.2568 31.7811 22.5152 31.7617 22.9759C32.9512 24.5694 34.7249 25.6534 36.3456 26.6344C36.5502 26.7891 36.5144 27.0276 36.3428 27.1636C33.4422 28.7866 30.4405 30.1359 27.4893 31.6228C26.3055 32.1453 25.0541 32.5318 23.955 33.2928C23.9545 33.3778 23.9368 33.481 24.0391 33.5331C28.1457 33.6901 32.0152 33.3019 36.2752 33.4764C37.3384 33.0214 38.1659 31.9515 39.1616 31.3248C39.7287 30.9349 40.0742 30.2883 40.6744 30.0191C41.2069 29.6463 41.6888 29.2048 42.2548 28.9181C45.1793 29.3255 47.8105 30.039 50.9424 29.9528L51.3197 29.8355C52.312 29.8582 53.4065 29.9999 54.3664 29.7148C59.722 29.6916 64.7594 28.6257 69.6939 27.4232C72.0416 26.9404 74.2193 26.0303 76.4311 25.2573C76.5499 25.3089 76.6687 25.429 76.7198 25.5316L76.7033 28.8591L76.992 29.185L81.8004 29.2105C82.3829 29.1447 83.1012 29.1997 83.6508 28.93C83.9082 28.709 83.6871 28.3673 83.6553 28.1111C83.5201 27.6498 83.0069 27.5274 82.6318 27.3716C81.8118 27.0945 82.33 26.1583 82.1789 25.5605C82.1709 23.9732 82.2641 22.3701 82.1357 20.7823C82.2857 18.3943 82.0578 16.1066 82.2067 13.7696L82.38 13.5656C83.1671 13.5186 83.8321 14.0342 84.5845 14.1912C84.8226 14.0886 85.0977 13.8342 85.0482 13.5435V13.5435ZM40.6238 16.6223C40.9403 14.9857 42.5043 13.7141 43.8443 12.7484C45.7981 12.1784 47.6167 11.2836 49.6887 11.0212C50.9236 10.5673 52.4285 10.7798 53.6458 10.3083C54.3817 10.2777 55.0671 10.0601 55.8212 10.0295C58.6627 9.83969 61.5565 9.51328 64.448 9.66515C64.6702 9.78585 65.064 9.63398 65.1828 9.90769C64.9577 10.4528 64.3224 10.6716 63.8586 10.9759C57.8622 14.7913 51.807 18.5143 45.6953 22.1434C44.1836 23.3125 43.0464 21.43 41.8348 20.8095C40.7619 19.6602 40.3072 18.2078 40.6238 16.6223V16.6223ZM76.6647 13.2097C76.5948 13.4313 76.2515 13.4806 76.0822 13.3265C74.3938 12.0548 72.3604 11.5154 70.1008 11.708C68.4727 12.2798 66.6746 12.4583 65.1635 13.3202C61.9566 14.7024 58.8321 16.5639 56.3361 19.4511C55.8189 20.1651 55.5234 20.9829 55.2972 21.8176C55.3973 22.2789 55.9457 22.2137 56.3207 22.284C58.4786 22.0902 60.7705 22.3582 62.7738 22.0612C63.0823 21.9094 63.2045 21.5688 63.1545 21.2951C63.2409 20.9715 63.0034 20.6973 62.7471 20.5936C61.3627 20.313 59.8879 20.7664 58.4695 20.4519C58.0268 20.1765 58.6269 19.8727 58.5951 19.548C60.9671 17.4785 63.3557 15.5116 66.2182 14.6729C68.2749 14.0524 69.8053 15.8522 70.8936 17.3595C71.3329 18.2146 71.5852 19.1888 71.4596 20.2292C70.3208 22.0148 68.3329 22.7384 66.6336 23.6338C63.1693 25.0833 59.2111 25.8648 55.2432 25.5883C54.8136 25.8076 54.388 25.4982 53.9259 25.5469C52.1136 25.2131 50.3019 24.8969 48.6453 24.2056C48.3555 24.0163 48.6476 23.7789 48.8022 23.6264C52.7365 20.644 56.7555 17.8661 60.7233 14.9687C62.3714 13.9878 63.9524 12.7847 65.584 11.7517C66.5461 11.0065 67.6094 10.4653 68.5897 9.77112C71.1704 10.3644 73.8721 10.7203 76.3481 11.5692C76.9454 11.9143 76.5647 12.6634 76.6647 13.2097V13.2097ZM76.6499 9.35291C76.4254 9.74448 75.9651 9.34951 75.623 9.34781C74.1869 9.0673 72.7514 8.7698 71.3153 8.47229C71.1789 8.40315 71.1454 8.24958 71.2312 8.14758C72.7252 7.18253 74.1181 6.01233 75.7133 5.33799C76.0054 5.15212 76.418 4.65911 76.7067 5.10452L76.6499 9.35291ZM82.7426 28.5282C81.0809 28.7923 79.3198 28.5101 77.6421 28.5871L77.3523 28.2613L77.2836 25.2239C77.4921 24.4742 78.348 24.4787 78.864 24.0548C80.0671 22.9175 80.7934 21.5393 80.5291 19.8314C80.1983 17.6967 78.9919 15.8816 77.4779 14.2524C77.4324 13.1604 77.1983 12.1007 77.5291 11.0614C77.327 9.67731 77.2541 8.27747 77.3114 6.87992L77.2739 4.18366L76.9841 3.92582C73.5521 5.87067 70.169 7.98608 66.8212 10.1355C60.5352 14.3006 54.3164 18.9604 48.098 23.4332C44.0949 26.3986 40.1924 29.8083 36.257 33.0299C33.0052 33.0123 29.8216 33.1835 26.6567 32.9789C26.6056 32.9115 26.572 32.7397 26.692 32.7069C31.8396 30.0718 37.0378 27.6073 42.1008 24.8011C44.9661 23.3312 47.6963 21.5711 50.5451 20.0501C51.0964 19.4047 51.9181 19.3746 52.52 18.7977C57.3271 16.0168 62.0397 13.0761 66.6496 9.98079C68.796 8.62699 70.9095 7.05106 73.0054 5.45812C74.4142 4.4245 75.9588 3.51101 77.1989 2.20369C77.2512 1.94811 77.2188 1.62341 76.9625 1.4347C76.8272 1.29757 76.6039 1.24543 76.6397 1.02329L76.846 0.853857C78.2832 0.861224 79.9614 0.682153 81.3122 0.877091L81.5674 1.16836L81.5765 6.08317L81.6151 15.0078C81.5572 19.4103 81.6231 23.0796 81.6339 27.4991C81.8726 28.0799 82.8148 27.8459 82.7426 28.5282V28.5282ZM95.776 56.1402C95.5475 50.8831 95.6771 45.8159 95.7385 40.6285C95.2122 39.9088 94.4041 40.4517 93.6017 40.2766C92.6901 41.0569 94.1933 41.44 94.2586 42.1738L94.2274 47.9415L94.1075 48.0611C93.5426 48.0752 93.0317 47.6627 92.4145 47.8128C90.8028 48.2821 89.9049 49.9844 89.7253 51.5184C89.6963 53.7709 89.3911 56.636 91.7467 57.7241C92.5838 58.0352 93.2874 57.5269 94.0586 57.4118C94.6723 57.7904 95.3929 57.5546 96.1454 57.6266L96.3863 57.3722C96.5602 56.7754 96.1852 56.4666 95.776 56.1402V56.1402ZM92.8311 56.5C92.3503 56.7205 91.9928 56.3261 91.8064 55.9668C91.046 54.1704 91.2978 51.8686 91.7865 49.977C91.9775 49.5854 92.2025 49.0584 92.6998 48.9247C93.6744 48.9468 93.8062 50.0393 94.0415 50.7233C94.1864 52.6851 94.6348 55.2307 92.8311 56.5ZM61.5349 55.8081C61.5451 50.7567 61.4349 45.6544 61.5639 40.6551L61.3598 40.3984L59.152 40.3871C58.2575 41.2524 59.9169 41.3465 59.8789 42.1478C59.8908 46.2947 59.9556 50.3737 59.8999 54.4345C59.7078 55.1836 60.1641 56.296 59.306 56.6491C57.9762 55.807 58.378 54.1188 57.6489 52.9543C56.5412 48.8538 55.2438 44.8196 54.1703 40.6846C53.7168 39.0611 53.0905 41.0376 52.8143 41.4281C52.366 42.0565 53.1337 42.5048 52.9252 43.187C52.5791 43.9011 52.6086 44.7885 52.2625 45.5212L49.9274 53.5629C49.5108 54.6861 49.5211 56.0524 48.3021 56.7618C48.1981 56.9834 48.11 57.4271 48.3833 57.6164L50.9668 57.664C51.2066 57.562 51.2765 57.324 51.2953 57.103C51.2615 56.9761 51.195 56.8602 51.1024 56.7668C51.0097 56.6735 50.8942 56.6059 50.7673 56.5709C50.4434 56.3652 50.2735 56.0563 50.2411 55.6987L50.9032 53.4485L51.2816 53.092L55.5433 53.0631L55.9531 53.3555L56.5577 55.4063C56.8953 56.296 55.8331 56.5975 55.9826 57.4175C56.0502 57.5206 56.169 57.6906 56.3054 57.6918L61.9696 57.7218C62.9488 57.1121 61.4292 56.5408 61.5349 55.8081V55.8081ZM55.1392 51.6799L51.9051 51.7309C51.3419 51.4555 51.7562 50.7913 51.8607 50.3827C52.2631 48.7467 52.9553 47.2484 53.3235 45.5949C53.4093 45.511 53.4952 45.46 53.6151 45.4776C54.3408 47.4264 54.8261 49.4596 55.3455 51.4764L55.1392 51.6799V51.6799ZM9.12473 41.525C9.68848 41.7318 9.98399 40.7957 10.4437 41.2416C10.4728 42.4644 10.3804 43.687 10.1681 44.8916C10.03 45.1132 9.77259 45.2821 9.46457 45.2124C8.85195 44.5097 8.89173 43.4693 8.03985 42.8329C7.61419 42.3869 7.10215 42.1279 6.48612 42.1245C5.56207 42.1886 4.65109 42.7983 4.21918 43.6665C3.33661 45.4526 3.17237 47.4825 3.21272 49.5656C3.59633 51.4781 3.7742 53.4757 4.89489 55.1026C5.57627 55.7713 6.36166 56.1 7.35448 56.0025C8.16089 55.6483 8.90025 54.97 9.0588 54.1001C9.14803 53.3839 9.49583 52.3446 8.77977 51.881C8.557 51.8963 8.38708 51.7252 8.28478 51.5546C8.27001 51.1273 8.08474 50.4609 8.61667 50.2762C9.35262 50.245 10.1744 50.1986 10.8751 50.338L11.045 50.5437C10.7785 52.4704 11.1791 54.3676 10.9802 56.3113C10.7893 56.8735 10.1551 57.0406 9.74247 57.3807C8.04383 58.191 5.66436 58.3145 4.06176 57.2146C1.60728 55.3417 0.989542 52.3859 0.953739 49.4171C1.01284 47.9659 1.08899 46.4999 1.59194 45.2044C1.85904 43.2607 3.30763 41.1867 5.26144 40.5656C6.6515 40.0278 8.08588 40.5809 9.12473 41.525V41.525ZM32.8853 43.3213C33.0541 43.7996 33.1024 44.3629 32.8432 44.8055C32.6364 45.1455 32.2596 45.1772 31.9351 45.0735C31.4583 44.593 31.4458 43.7741 31.6538 43.161C31.9652 42.6 32.8029 42.6731 32.8853 43.3213V43.3213ZM13.2557 43.4755C13.3733 43.9702 13.4205 44.6706 13.042 45.0605C12.8698 45.2311 12.5788 45.2628 12.3396 45.1767C11.8105 44.9352 11.9162 44.3555 11.8673 43.8773C11.9378 43.4676 12.1628 42.9921 12.6084 42.8912C12.9511 42.8589 13.1028 43.2516 13.2557 43.4755V43.4755ZM100.919 47.9766C101.002 48.3693 101.273 48.8323 100.998 49.2052C100.825 49.5627 100.397 49.5441 100.125 49.4058C99.7825 49.3196 99.666 48.5501 99.271 48.9575C98.7016 49.7056 99.0391 50.6632 98.7618 51.532L98.7908 55.7985C99.0096 56.4139 100.053 56.5391 99.6035 57.3892L99.2261 57.5926L97.0018 57.5807C96.592 57.3739 96.9364 56.9488 96.8864 56.6423C97.3337 56.3023 97.3359 55.7736 97.4246 55.2964C97.3945 54.392 97.3149 53.3504 97.5246 52.5163C97.1728 51.1483 97.8486 49.361 96.8108 48.2804C96.7608 48.0922 96.8807 47.9562 97.0183 47.8378C97.7207 47.7556 98.4913 47.6066 99.0363 48.0865C99.5341 47.7477 100.547 46.9685 100.919 47.9766ZM88.4745 48.6957C88.6316 49.0257 88.6715 49.3992 88.5876 49.7549C88.5091 51.773 88.4987 53.7932 88.5563 55.8121C88.604 56.4439 89.8162 57.0129 88.9581 57.5886L86.869 57.5784C86.5462 57.4056 86.5991 56.9795 86.669 56.6729L87.0321 55.9402V49.5072C86.7946 49.0964 86.2973 49.1621 85.9211 49.2108C85.2176 49.5826 85.213 50.385 85.1244 51.0848C85.1488 52.8591 85.0368 54.6334 85.3528 56.3408C85.5739 56.6661 85.9654 56.976 85.758 57.4356L85.5858 57.6051C84.8334 57.6362 83.9429 57.7337 83.2416 57.5076C82.8853 57.0282 83.3672 56.5017 83.6258 56.0767C83.6201 53.8576 83.6837 51.7603 83.6258 49.5752C83.4928 48.9944 82.4517 48.4084 83.2586 47.8497C83.9093 47.9041 84.9215 47.3459 85.2767 48.184C86.0649 47.916 87.0969 46.9657 87.896 47.9086L88.4745 48.6957V48.6957ZM106.492 48.9961C105.865 47.7465 104.412 47.4145 103.178 47.8349C101.48 48.7303 101.47 50.6581 101.136 52.2788C101.298 54.0197 101.288 55.8285 102.547 57.1143C103.264 57.596 104.323 57.9598 105.147 57.4696C106.125 57.048 106.488 56.0087 106.956 55.1751C107.429 53.113 107.458 50.8264 106.492 48.9961V48.9961ZM104.399 56.4757C104.245 56.6287 103.97 56.6275 103.783 56.5578C103.492 56.4196 103.443 56.0954 103.308 55.8563C103.01 53.687 102.579 51.1931 103.701 49.2709C103.855 49.0329 104.235 48.7796 104.49 49.0703C105.017 49.6534 105.132 50.4394 105.18 51.2418C105.29 53.0337 105.399 55.0301 104.399 56.4757V56.4757ZM71.7205 48.6952C71.8029 49.327 72.1399 50.3011 71.4187 50.6899C71.059 50.7397 70.6316 50.6689 70.5487 50.2762C70.4657 49.7804 70.5032 49.1496 69.9048 48.9247C69.5297 48.7864 69.2711 49.1604 69.1154 49.4148C69.079 49.756 68.8369 50.2326 69.1609 50.525C69.9411 51.8091 71.8427 51.562 72.1069 53.2354C72.4257 54.6368 72.4507 56.2416 71.4187 57.3274C70.8851 57.974 70.0457 58.0034 69.2421 57.8963C68.3886 57.5677 67.7424 56.678 67.7305 55.756C67.8879 55.1083 67.6873 54.1687 68.5272 53.9505C69.5683 54.3835 68.5852 55.9827 69.8315 56.33C70.2077 56.3833 70.4827 56.0943 70.6907 55.8053C70.8459 55.4301 70.9351 54.9366 70.7828 54.5422C69.7627 53.2229 67.7151 52.2233 67.7236 50.3793C67.7634 49.4239 68.0254 48.4866 68.8835 47.929C69.4331 47.5737 70.152 47.5947 70.7669 47.7851C71.1249 47.9919 71.5523 48.2843 71.7205 48.6952V48.6952Z" fill="#D3BD97"/>
<path fill-rule="evenodd" clip-rule="evenodd" d="M82.363 55.5758C81.485 53.2501 83.212 50.3238 81.4083 48.3693C80.828 47.9222 80.1972 47.5437 79.3584 47.7108C78.4827 48.218 77.982 49.102 78.0275 50.109C78.0928 50.6723 78.6935 50.4201 79.0521 50.4898C79.4806 50.3561 79.2442 49.8602 79.434 49.5877C79.5891 49.3497 79.8301 48.9581 80.2063 49.0964C80.94 49.51 80.9866 50.347 80.9832 51.1143C80.7058 51.7785 79.8511 51.4328 79.3374 51.7195C77.8967 52.344 77.5114 53.912 77.4359 55.3451C77.4648 56.266 77.7501 57.2922 78.7248 57.6039C79.4419 57.8629 80.1455 57.5597 80.7115 57.1698C81.1923 56.9687 81.4287 57.6005 81.9771 57.3812C82.3545 57.2815 82.579 56.9409 82.8364 56.6519C83.2831 56.1612 82.463 56.0031 82.363 55.5758ZM80.8536 52.905C80.7627 54.014 80.7905 55.2261 79.846 55.9033C79.6227 55.9198 79.4186 55.714 79.3521 55.5259C79.1345 54.5688 79.3124 53.1872 80.1893 52.493C80.4984 52.1536 80.89 52.582 80.8536 52.905V52.905ZM64.3428 52.3417C65.0276 52.2431 65.8147 52.3837 66.483 52.2165C66.774 52.1156 67.0303 52.2709 67.3042 52.1015C67.5838 51.0786 67.3162 49.8659 66.9445 48.9082C66.5888 48.3695 66.0781 47.9505 65.4794 47.7063C64.727 47.5312 64.0422 47.7839 63.508 48.2418C62.2174 49.7027 62.1725 51.7326 62.247 53.7125C62.4277 55.1292 62.7965 56.8383 64.2815 57.375C65.0163 57.5501 65.8733 57.4855 66.4569 56.9766C66.7155 56.5516 67.1286 56.1266 66.9951 55.5797C66.9439 55.4602 66.8075 55.357 66.6712 55.374C66.2762 55.6795 65.9295 56.3771 65.3146 56.1011C64.2559 55.7191 64.2968 54.5081 64.045 53.602C64.1496 53.1776 63.8103 52.6285 64.3428 52.3417V52.3417ZM64.3605 48.8952C64.448 48.6232 64.7736 48.4192 65.064 48.5745C65.609 49.004 65.6403 49.6358 65.8255 50.2167C65.7721 50.4723 65.9767 50.7125 65.788 50.916C65.393 51.1183 64.8287 51.0299 64.3838 50.9766C63.8223 50.3595 64.4429 49.6126 64.3605 48.8952ZM76.035 48.1715C76.7175 48.7207 76.7465 49.6245 76.6397 50.3929C76.4845 50.6995 76.1077 50.6797 75.8861 50.559C75.3758 50.0274 75.2956 48.8499 74.3364 48.9819C74.0278 49.1678 73.8891 49.4743 73.8357 49.7973C73.9113 51.6923 76.4987 51.2106 76.7795 53.0892C77.2176 54.2526 77.2102 55.7877 76.605 56.8599C76.0202 57.5053 75.2667 57.7054 74.4108 57.719C73.6413 57.562 73.081 56.8072 72.948 56.0733C72.8304 55.5775 72.6627 54.9621 72.9213 54.4685C73.06 54.248 73.3521 53.9426 73.6084 54.1817C74.4955 54.7331 73.684 55.9912 74.6739 56.5261C75.016 56.5794 75.3076 56.3249 75.4462 56.0348C75.7224 55.5248 75.7946 54.8249 75.4553 54.3115C74.8438 53.4728 73.6459 53.364 73.1389 52.3372C72.5275 51.4475 72.6371 49.9634 72.9849 48.9745C73.6067 47.9188 75.0297 47.5856 76.035 48.1715V48.1715ZM39.2235 48.5586C38.6274 48.0605 37.9278 47.6984 37.1049 47.848C35.5983 48.0616 35.042 49.6976 34.7447 50.9069C34.4589 53.2088 34.4452 55.8364 36.182 57.4668C36.9997 58.102 38.063 57.7501 38.8524 57.3274C39.831 56.6666 40.0595 55.5588 40.2703 54.503C40.3845 52.3871 40.6187 50.1702 39.2235 48.5586V48.5586ZM37.83 56.572C37.797 56.6156 37.7541 56.651 37.705 56.6752C37.6558 56.6995 37.6016 56.7119 37.5467 56.7116C37.4919 56.7113 37.4378 56.6982 37.389 56.6733C37.3401 56.6485 37.2977 56.6126 37.2651 56.5686C36.2291 55.0448 36.3581 53.2881 36.3854 51.3767C36.4758 50.4723 36.5838 49.45 37.4248 48.9592C38.229 49.0658 38.3779 49.9368 38.529 50.5686C38.6035 52.5486 38.9848 54.9048 37.83 56.572V56.572ZM19.9178 49.1066C19.3569 48.3353 18.5556 47.8026 17.5975 47.797C16.5189 47.8769 15.4885 48.5881 14.9873 49.5758C14.1871 52.0459 14.3593 55.0663 15.9057 57.1228C16.5706 57.6045 17.4418 57.915 18.3158 57.664C20.6311 56.7375 20.5418 54.1092 20.6561 51.9774C20.4208 51.0202 20.5123 49.9288 19.9178 49.1066V49.1066ZM18.238 56.1447C18.014 56.3663 17.7725 56.8599 17.3798 56.636C16.6314 55.8126 16.3978 54.6504 16.4035 53.525C16.2512 53.1487 16.3904 52.8257 16.2552 52.4494C16.3978 51.3926 16.4211 50.2654 16.8877 49.3468C17.0428 49.1763 17.1974 49.0068 17.4202 48.974C18.2067 49.0635 18.3221 49.9169 18.5244 50.4989C18.8568 52.2579 18.7602 54.4413 18.238 56.1447ZM31.0531 49.9844C31.2446 49.3876 30.8883 48.8057 30.4802 48.3433C30.2245 48.154 29.8983 48.3398 29.6579 48.4747C28.8867 48.7093 28.4469 47.6836 27.5734 47.9182C26.6999 48.0678 25.7895 48.66 25.4258 49.5112C24.8882 50.8395 24.9132 52.5967 25.8486 53.7278C25.9804 54.6334 25.3781 55.3293 25.1854 56.1476C25.1661 56.5573 24.8376 57.1868 25.2985 57.4622C26.0862 57.3636 26.705 56.8213 27.5603 56.8933C28.1758 57.0174 28.947 56.7647 29.3203 57.4322C29.7102 58.2358 29.3459 59.1209 28.8293 59.7335C28.4679 60.0899 27.9547 60.0531 27.4586 60.0503C26.4521 59.4989 27.9468 58.3814 26.992 57.7105C26.6158 57.6062 26.2225 57.6549 25.9975 58.0289C25.5843 58.5049 25.4616 59.1521 25.5781 59.7845C25.8475 60.6056 26.4931 61.4449 27.3302 61.7225C27.7266 61.8303 28.143 61.8426 28.5451 61.7585C28.9472 61.6743 29.3236 61.4961 29.6431 61.2386C30.8979 60.1194 31.2332 58.2448 30.6422 56.7052C30.0313 55.7809 29.043 54.9564 27.8956 55.0527C27.4677 55.0505 27.0199 55.5939 26.663 55.2165C26.613 54.9949 26.7505 54.7569 26.9574 54.6045C27.7439 54.694 28.5321 54.5439 29.0998 53.9505C30.1307 53.1028 30.1893 51.7892 30.1785 50.5607C30.3342 50.134 30.7951 50.2734 31.0531 49.9844V49.9844ZM27.7842 53.3278C27.2358 53.4275 27.0682 52.7956 26.8477 52.4698C26.9375 51.7025 26.8568 50.814 26.946 50.0977C27.0841 49.7922 27.2574 49.3825 27.6512 49.3174C27.9593 49.3021 28.2661 49.5242 28.3849 49.8155C28.6185 50.9607 28.918 52.6007 27.7842 53.3278V53.3278Z" fill="#D3BD97"/>
<path fill-rule="evenodd" clip-rule="evenodd" d="M24.7808 48.4492C24.8132 48.8589 24.8967 49.2352 24.6893 49.5928C24.4824 49.8818 24.0369 49.9815 23.7811 49.7412C23.718 49.7074 23.6476 49.6895 23.576 49.6891C23.5043 49.6887 23.4337 49.7058 23.3703 49.739C22.7502 50.5544 23.0861 51.7688 22.8241 52.7395C22.9043 53.7975 22.7946 55.1117 22.8917 56.1708C22.9395 56.8196 24.2727 57.116 23.3629 57.7768C22.5923 57.8244 21.7023 57.8708 20.9499 57.7127C20.7112 57.558 20.7129 57.2514 20.7822 57.0299C21.675 56.4711 21.3215 55.412 21.4113 54.524L21.4022 49.6608C21.0794 49.3009 20.1901 49.0918 20.5367 48.3767L20.8294 48.0877C21.6153 48.3132 22.5763 47.7902 23.1373 48.5603C23.4805 48.4084 23.7391 48.0344 24.1159 47.9517C24.4074 47.9358 24.6626 48.1925 24.7808 48.4492V48.4492ZM33.4411 48.29C33.6258 49.025 33.4337 49.6891 33.4297 50.457C33.6428 52.2845 33.3064 54.3296 33.5195 56.1402C33.6366 56.687 34.6606 57.1693 33.9218 57.7462L31.4236 57.7331C31.1679 57.5614 31.2037 57.2373 31.2565 56.9981C32.2692 56.3895 31.7288 55.1241 31.9391 54.1693C31.8782 52.718 32.0578 51.0639 31.8265 49.544C31.5202 49.2188 31.3338 48.8425 31.4219 48.3478C31.8868 47.7879 32.6034 48.2514 33.237 48.1188L33.4411 48.29V48.29ZM13.146 48.1324C13.5887 48.5444 13.5336 49.3633 13.3426 49.8914C13.8098 52.0952 13.0971 54.2588 13.4449 56.4105C13.5109 56.8378 14.2633 57.0293 14.0553 57.5229L13.7632 57.7609L11.3843 57.7133C11.1456 57.5762 11.1814 57.235 11.3019 57.048C11.9719 56.5731 11.9418 55.7378 11.9293 55.004L11.9554 49.9362C11.719 49.2522 10.2664 48.9201 11.0581 48.0877L13.146 48.1324V48.1324Z" fill="#D3BD97"/>
</svg>
