<svg width="201" height="90" viewBox="0 0 201 90" fill="none" xmlns="http://www.w3.org/2000/svg">
<g id="logo">
<g id="&#208;&#161;&#208;&#187;&#208;&#190;&#208;&#185;_x0020_1">
<g id="_1731783666016">
<path id="Vector" fill-rule="evenodd" clip-rule="evenodd" d="M201 45.2671L189.176 45.3226L179.73 59.1583C177.515 58.0096 172.064 48.3986 169.445 45.3223L157.666 45.3021C158.735 47.2734 159.943 47.9708 161.243 49.2783L161.434 77.0141L169.432 77.0482L169.588 59.0157C171.307 61.0435 172.738 63.3614 174.32 65.6092C175.803 67.7168 177.439 70.6563 179.07 71.9804C181.762 70.9793 186.177 61.096 189.035 59.1209L189.314 77.0485L197.246 76.9595L197.462 49.4033L201 45.2671Z" fill="#F62559"/>
<path id="Vector_2" fill-rule="evenodd" clip-rule="evenodd" d="M104.159 39.4154C107.407 38.5861 164.399 39.0885 172.814 39.0885C191.932 39.0885 190.453 37.3438 191.214 43.4551L197.134 43.3414C198.452 29.4611 189.281 32.5089 177.627 32.5103L116.506 32.5076C104.911 32.5076 96.3277 29.5229 97.5068 43.3958L103.409 43.4211L104.159 39.4154Z" fill="#F62559"/>
<path id="Vector_3" fill-rule="evenodd" clip-rule="evenodd" d="M116.986 89.7161H178.107C188.864 89.7161 199.023 92.4664 197.085 78.8873L191.268 78.8154L190.543 82.8647C187.456 83.5579 106.669 83.4806 103.938 82.8499L103.364 78.824L97.5381 78.9721C95.918 92.751 105.806 89.7161 116.986 89.7161Z" fill="#F62559"/>
<path id="Vector_4" fill-rule="evenodd" clip-rule="evenodd" d="M70.8419 60.2994L70.6795 52.1636C75.3037 51.9948 83.6599 50.5802 83.7461 56.0866C83.8362 61.8556 75.7688 60.2804 70.8419 60.2994ZM84.196 65.6875C87.7337 63.7988 90.4903 62.9018 91.6268 58.6326C92.8421 54.0685 90.5353 50.2534 88.1882 48.3251C84.5923 45.3704 82.1052 45.2721 76.5609 45.2969C71.9234 45.3177 67.1483 45.1636 62.5039 45.3289L62.5508 77.0458L70.6879 76.8035L70.709 66.5998L75.5972 66.7116C81.3546 76.4617 82.6422 77.3608 91.8824 76.9722L91.8784 69.6201C87.7283 69.348 85.1308 69.2646 84.196 65.6875Z" fill="#F62559"/>
<path id="Vector_5" fill-rule="evenodd" clip-rule="evenodd" d="M124.489 45.3468C123.76 48.6552 124.262 59.2064 124.261 63.2868C124.258 69.9964 124.987 73.0784 129.602 75.6872C136.707 79.7037 152.083 78.3197 152.099 66.6478C152.108 59.5254 152.342 52.3836 151.877 45.2751L144.026 45.2649L143.934 65.2306C143.819 73.3331 134.779 70.2979 133.821 69.5064C132.208 68.1743 132.522 65.4433 132.522 63.2868L132.239 45.2622L124.489 45.3468Z" fill="#F62559"/>
<path id="Vector_6" fill-rule="evenodd" clip-rule="evenodd" d="M8.84793 52.3602C13.3588 51.4104 21.5321 51.0333 21.156 56.5168C20.8387 61.1445 13.446 60.9314 8.91862 60.1061L8.84793 52.3602ZM8.93454 67.0703C15.1777 67.1015 20.0186 67.7692 24.6128 64.7801C27.6729 62.7893 30.9191 58.123 28.6759 52.4726C25.0898 43.4391 11.8655 44.8882 0.667969 45.3174L0.784144 77.0515L8.87841 76.8883L8.93454 67.0703Z" fill="#F62559"/>
<path id="Vector_7" fill-rule="evenodd" clip-rule="evenodd" d="M38.7823 67.2544C39.2104 65.2656 39.7237 64.1687 40.3971 62.2435L41.7035 58.739C42.2025 57.9144 41.9952 58.3232 42.5108 57.8224L45.7078 67.1693L38.7823 67.2544ZM36.4206 45.3164C37.4969 49.7864 38.5465 48.7114 36.6993 53.26C34.5607 58.5259 28.4942 73.4606 27.5312 77.2311L35.0567 77.1272L36.6125 72.9553L48.0033 73.0878L49.6081 77.2031L56.9212 77.2456C56.274 73.8973 45.3912 46.4988 44.6108 45.2666L36.4206 45.3164Z" fill="#F62559"/>
<path id="Vector_8" fill-rule="evenodd" clip-rule="evenodd" d="M105.639 52.3009L119.305 52.1442L119.086 45.2866L97.4102 45.3932L97.4976 77.0528L105.627 76.8459L105.67 65.3758L114.734 65.3033L114.792 58.539L105.641 58.2401L105.639 52.3009Z" fill="#F62559"/>
<path id="Vector_9" fill-rule="evenodd" clip-rule="evenodd" d="M168.222 6.15284C173.701 3.97442 176.045 12.574 171.24 14.2048C168.267 15.2136 166.053 13.6292 165.403 11.5934C164.441 8.58057 166.103 6.99519 168.222 6.15284ZM159.939 0.810584C156.599 2.15012 157.401 4.9239 157.397 9.03084C157.395 11.9987 156.795 17.374 158.559 18.9409C160.088 20.299 176.735 20.4749 179.456 19.512C182.42 18.4633 181.705 14.1065 181.704 10.9515C181.704 7.79438 182.424 2.65982 180.229 1.15363C178.792 0.168506 161.784 0.0708289 159.939 0.810584Z" fill="#F62559"/>
<path id="Vector_10" fill-rule="evenodd" clip-rule="evenodd" d="M55.5059 25.0679L60.9441 25.0779C61.8613 21.4932 59.314 12.044 63.6648 11.5511C68.1855 11.0389 66.5482 21.6041 66.5416 24.9424L72.2915 25.0526C72.3331 11.3283 73.8335 4.61801 61.2202 8.52554L61.1924 0L55.5791 0.0266802L55.5059 25.0679Z" fill="#F62559"/>
<path id="Vector_11" fill-rule="evenodd" clip-rule="evenodd" d="M76.0586 24.9558L81.859 25.0712C81.8501 22.5992 81.4813 20.0211 82.4654 18.317L87.017 25.0747L93.4787 25.0336L86.76 14.8373C87.7337 13.6817 88.494 12.5983 89.5953 11.4378C91.178 9.76936 91.6705 9.59779 92.7277 7.43074L86.0738 7.4762C85.1859 9.295 83.3165 11.8232 81.9728 13.3317L81.8121 0.0284613L76.1558 0.00341797L76.0586 24.9558Z" fill="#F62559"/>
<path id="Vector_12" fill-rule="evenodd" clip-rule="evenodd" d="M152.825 31.1259L186.309 31.1009L186.248 23.937L152.822 24.1385L152.825 31.1259Z" fill="#F62559"/>
<path id="Vector_13" fill-rule="evenodd" clip-rule="evenodd" d="M118.865 8.95728C117.659 7.61813 119.491 7.27979 113.201 7.61148L113.245 24.9163L118.984 25.0691C118.994 21.8427 118.869 18.3908 118.988 15.2547C119.113 11.9826 121.7 10.0524 123.87 12.7633C125.31 16.0748 123.777 21.1811 124.557 24.9692L129.763 25.0971C130.522 22.6807 130.358 12.7416 129.395 10.57C127.663 6.66509 121.916 5.94827 118.865 8.95728Z" fill="#F62559"/>
<path id="Vector_14" fill-rule="evenodd" clip-rule="evenodd" d="M26.8797 11.434L28.3574 10.8907L30.0471 11.2503C33.1299 14.9948 33.2028 21.1327 27.1434 21.1327C25.0365 20.5695 24.4289 14.224 26.8797 11.434ZM26.3736 7.20071C15.1708 9.6846 17.8378 27.7103 30.6125 25.1361C41.8242 22.8768 39.1706 4.36326 26.3736 7.20071Z" fill="#F62559"/>
<path id="Vector_15" fill-rule="evenodd" clip-rule="evenodd" d="M99.405 14.0906C99.5226 10.0651 105.086 9.44906 104.909 14.1616L99.405 14.0906ZM109.467 24.3764L108.826 20.5913C104.32 21.2543 100.585 22.3855 99.2198 18.1146L110.148 17.9584C112.952 6.59062 99.2441 3.56176 94.9049 11.4878C92.1135 16.5866 92.7017 28.4161 109.467 24.3764Z" fill="#F62559"/>
<path id="Vector_16" fill-rule="evenodd" clip-rule="evenodd" d="M0 5.61815L6.31188 5.69819L6.3794 24.9311L12.0667 25.0529L12.0632 5.70726L18.3772 5.67151L18.3823 0.996094L0.153216 1.00891L0 5.61815Z" fill="#F62559"/>
<path id="Vector_17" fill-rule="evenodd" clip-rule="evenodd" d="M134.981 4.33287L134.526 7.30248L132.232 8.07045L132.243 10.9515L134.638 11.9116C134.797 20.919 133.193 26.706 144.211 24.9446L144.093 20.8875L140.673 20.6073L140.316 11.452L144.452 11.4398L144.478 7.50738L140.373 7.33812L140.294 3.11865L134.981 4.33287Z" fill="#F62559"/>
<path id="Vector_18" fill-rule="evenodd" clip-rule="evenodd" d="M47.1377 20.5541C45.0148 22.0755 42.4776 20.9673 40.5108 20.241L39.3652 24.2466C44.2581 25.6044 50.771 26.0192 52.4816 21.5079C53.4417 18.9761 52.174 16.6383 50.7461 15.577C49.734 14.8246 48.7992 14.5263 47.8543 14.163C45.669 13.3226 45.7217 13.625 45.2415 11.7118C47.5498 10.4018 48.4755 11.2256 51.1171 11.9299L52.1027 8.0846C41.1362 4.25201 36.5204 13.1259 42.2959 16.7939C44.6274 18.2745 47.012 17.8318 47.1377 20.5541Z" fill="#F62559"/>
<path id="Vector_19" fill-rule="evenodd" clip-rule="evenodd" d="M160.301 23.1327C163.45 23.1327 179.432 23.8097 181.534 22.4747L181.636 20.838C177.871 20.5862 159.407 19.8974 158.049 20.7473C155.758 22.1803 158.365 23.1327 160.301 23.1327Z" fill="#F62559"/>
</g>
</g>
</g>
</svg>
