<svg width="48" height="48" viewBox="0 0 48 48" fill="none" xmlns="http://www.w3.org/2000/svg">
<rect width="48" height="48" fill="#F62559"/>
<path fill-rule="evenodd" clip-rule="evenodd" d="M23.3815 10.6111C25.8592 9.61642 26.9189 13.5433 24.7462 14.2879C23.4023 14.7486 22.4008 14.0251 22.1069 13.0955C21.6719 11.7197 22.4234 10.9958 23.3815 10.6111ZM19.6365 8.17171C18.126 8.78338 18.4888 10.05 18.4871 11.9253C18.4858 13.2806 18.2146 15.7351 19.0121 16.4506C19.7035 17.0707 27.2312 17.1511 28.4616 16.7113C29.8016 16.2325 29.4782 14.243 29.478 12.8023C29.4778 11.3607 29.8037 9.01613 28.8108 8.32835C28.1613 7.87852 20.4707 7.83392 19.6365 8.17171Z" fill="white"/>
<path fill-rule="evenodd" clip-rule="evenodd" d="M16.415 20.4145C16.4154 21.2981 17.1322 22.0141 18.0158 22.0134L29.9123 22.0044C30.8181 22.0038 31.55 21.2651 31.5423 20.3593C31.5347 19.4599 30.8005 18.7364 29.9011 18.7418L18.0048 18.8143C17.125 18.8196 16.4146 19.5346 16.415 20.4145Z" fill="white"/>
<path fill-rule="evenodd" clip-rule="evenodd" d="M19.8731 18.3647C21.2131 18.3647 27.6923 18.6385 29.2433 18.1627C29.3953 18.116 29.4799 17.9704 29.4897 17.8117C29.5066 17.5379 29.3031 17.3025 29.0292 17.2879C26.6053 17.1585 19.4226 16.9166 18.8547 17.2754C17.8189 17.9298 18.9977 18.3647 19.8731 18.3647Z" fill="white"/>
<path fill-rule="evenodd" clip-rule="evenodd" d="M11.6845 35.7219C11.6251 39.8592 14.5166 39.7305 18.2025 39.5664C18.9598 39.5327 19.7507 39.4975 20.5565 39.4975H27.6337C28.3574 39.4975 29.0752 39.5253 29.7698 39.5522C33.4248 39.6938 36.4397 39.8106 36.3198 35.7219H36.3233V26.7891H36.2906C36.3986 22.368 33.6587 22.4887 29.8553 22.6563C29.0813 22.6904 28.2632 22.7265 27.4161 22.7266L19.5368 22.7253C18.6856 22.7253 17.8911 22.6894 17.1597 22.6563C13.615 22.496 11.5504 22.4027 11.6828 26.7891H11.6768V35.7219H11.6845ZM21.9008 25.6959C18.856 25.6503 15.8107 25.6047 14.7442 25.8796L14.5473 26.9421V35.5883L14.6566 36.3622C15.8916 36.6502 31.8609 36.6855 33.2568 36.3689L33.4528 35.2637V26.798C33.4019 26.4164 33.3373 26.1536 33.178 25.9751C32.8219 25.5758 31.9925 25.5985 29.7848 25.6591C28.6643 25.6899 27.1888 25.7303 25.2399 25.7303C24.1978 25.7303 23.0493 25.7131 21.9008 25.6959Z" fill="white"/>
</svg>
