<svg width="80" height="80" viewBox="0 0 80 80" fill="none" xmlns="http://www.w3.org/2000/svg">
<g filter="url(#filter0_d_6973_8313)">
<path d="M60 30.3875C60 29.2315 59.4336 28.1582 58.4668 27.5306L41.9503 16.5821C40.7666 15.806 39.2501 15.806 38.0668 16.5821L21.5503 27.5141C20.5835 28.1582 20 29.2315 20 30.3875V52.5486C20 54.4477 21.567 56 23.5002 56H56.5169C58.4501 56 60 54.4477 60 52.5486V30.3875Z" fill="#F62559"/>
</g>
<path d="M44.1869 33.0738C37.9586 29.9381 30.2434 34.6863 30.3313 41.6795C30.3276 43.3256 30.7525 44.9443 31.564 46.3764C32.3756 47.8086 33.5459 49.0048 34.96 49.8475C35.394 50.1106 35.8918 50.2498 36.3994 50.25H43.6006C44.1081 50.2498 44.6059 50.1106 45.04 49.8475C51.6231 45.9138 50.9717 36.3294 44.1869 33.0738ZM33.91 35.4056C34.9714 34.3962 36.2676 33.6671 37.6815 33.2844C39.0955 32.9017 40.5825 32.8775 42.0081 33.2138C42.6441 33.3641 43.2607 33.5872 43.8456 33.8788C45.1985 34.5406 46.3599 35.5371 47.2197 36.7736C48.0795 38.0101 48.6093 39.4457 48.7587 40.9444C48.5137 40.9356 48.295 40.9181 48.0981 40.8919C45.9836 40.5913 45.7289 39.8208 43.1106 39.8419C39.9388 39.8295 39.9281 40.9459 36.8544 40.9576C34.3379 40.974 34.2314 40.18 32.0637 39.9075C31.8625 39.8813 31.6437 39.8638 31.3987 39.855C31.7647 38.1513 32.6406 36.5994 33.91 35.4056Z" fill="white"/>
<path d="M38.0007 31.6344C39.8502 31.2739 41.763 31.4283 43.5307 32.0806V30.9825C43.5272 30.7932 43.4836 30.6067 43.4029 30.4355C43.3221 30.2642 43.206 30.112 43.0622 29.9888C42.9183 29.8657 42.7501 29.7744 42.5684 29.7209C42.3868 29.6675 42.1958 29.6531 42.0082 29.6787H37.782C37.4351 29.6778 37.102 29.8146 36.8559 30.059C36.6098 30.3035 36.4708 30.6356 36.4695 30.9825V32.0587C36.9681 31.8778 37.4801 31.7359 38.0007 31.6344Z" fill="white"/>
<path d="M42.0082 29.0225V26.1875C42.0084 26.13 41.9972 26.073 41.9753 26.0198C41.9534 25.9667 41.9212 25.9184 41.8805 25.8777C41.8398 25.837 41.7915 25.8048 41.7384 25.7829C41.6852 25.761 41.6282 25.7498 41.5707 25.75H38.4294C38.3719 25.7498 38.315 25.761 38.2618 25.7829C38.2086 25.8048 38.1603 25.837 38.1196 25.8777C38.079 25.9184 38.0468 25.9667 38.0248 26.0198C38.0029 26.073 37.9917 26.13 37.9919 26.1875V29.0225C38.5664 29.0225 42.0082 29.0225 42.0082 29.0225ZM40.0526 28.1125C39.9126 28.111 39.7788 28.0543 39.6804 27.9548C39.5819 27.8553 39.5267 27.7209 39.5267 27.5809C39.5267 27.4409 39.5819 27.3066 39.6804 27.2071C39.7789 27.1075 39.9126 27.0509 40.0526 27.0494C40.1926 27.0509 40.3263 27.1076 40.4248 27.2071C40.5232 27.3066 40.5785 27.441 40.5785 27.581C40.5785 27.721 40.5232 27.8553 40.4248 27.9548C40.3263 28.0543 40.1926 28.111 40.0526 28.1125Z" fill="white"/>
<defs>
<filter id="filter0_d_6973_8313" x="0" y="0" width="80" height="80" filterUnits="userSpaceOnUse" color-interpolation-filters="sRGB">
<feFlood flood-opacity="0" result="BackgroundImageFix"/>
<feColorMatrix in="SourceAlpha" type="matrix" values="0 0 0 0 0 0 0 0 0 0 0 0 0 0 0 0 0 0 127 0" result="hardAlpha"/>
<feOffset dy="4"/>
<feGaussianBlur stdDeviation="10"/>
<feComposite in2="hardAlpha" operator="out"/>
<feColorMatrix type="matrix" values="0 0 0 0 0.964706 0 0 0 0 0.145098 0 0 0 0 0.34902 0 0 0 0.4 0"/>
<feBlend mode="normal" in2="BackgroundImageFix" result="effect1_dropShadow_6973_8313"/>
<feBlend mode="normal" in="SourceGraphic" in2="effect1_dropShadow_6973_8313" result="shape"/>
</filter>
</defs>
</svg>
