<svg width="20" height="20" viewBox="0 0 20 20" fill="none" xmlns="http://www.w3.org/2000/svg">
<path d="M16.6673 9.00004V10C16.6673 13.1427 16.6673 14.7141 15.691 15.6904C14.7147 16.6667 13.1433 16.6667 10.0007 16.6667C6.85795 16.6667 5.28661 16.6667 4.3103 15.6904C3.33398 14.7141 3.33398 13.1427 3.33398 10C3.33398 6.85734 3.33398 5.286 4.3103 4.30968C5.28661 3.33337 6.85795 3.33337 10.0007 3.33337H11.0007" stroke="#9E9EA5" stroke-width="1.5" stroke-linecap="round"/>
<path d="M13.102 4.30341L13.5346 3.87087C14.2512 3.15421 15.4132 3.15421 16.1298 3.87087C16.8465 4.58753 16.8465 5.74947 16.1298 6.46613L15.6973 6.89868M13.102 4.30341C13.102 4.30341 13.1561 5.22257 13.9671 6.03359C14.7781 6.84461 15.6973 6.89868 15.6973 6.89868M13.102 4.30341L9.12544 8.27999C8.85609 8.54934 8.72142 8.68401 8.6056 8.8325C8.46898 9.00766 8.35185 9.19719 8.25628 9.39772C8.17526 9.56772 8.11503 9.7484 7.99458 10.1098L7.60893 11.2667M15.6973 6.89868L11.7207 10.8753C11.4514 11.1446 11.3167 11.2793 11.1682 11.3951C10.993 11.5317 10.8035 11.6488 10.603 11.7444C10.433 11.8254 10.2523 11.8857 9.89093 12.0061L8.73398 12.3918M8.73398 12.3918L7.98538 12.6413C7.80755 12.7006 7.61149 12.6543 7.47895 12.5217C7.3464 12.3892 7.30012 12.1931 7.35939 12.0153L7.60893 11.2667M8.73398 12.3918L7.60893 11.2667" stroke="#9E9EA5" stroke-width="1.5"/>
</svg>
