<svg width="135" height="40" viewBox="0 0 135 40" fill="none" xmlns="http://www.w3.org/2000/svg">
<g clip-path="url(#clip0_680_367)">
<path fill-rule="evenodd" clip-rule="evenodd" d="M129.998 40H5.00184C2.24512 40 0 37.7456 0 35V5C0 2.24439 2.24512 0 5.00184 0H129.998C132.752 0 135 2.24439 135 5V35C135 37.7456 132.752 40 129.998 40Z" fill="black"/>
<path fill-rule="evenodd" clip-rule="evenodd" d="M129.998 0.800499C132.31 0.800499 134.203 2.68828 134.203 5V35C134.203 37.3117 132.323 39.1995 129.998 39.1995H5.00184C2.68967 39.1995 0.797215 37.3117 0.797215 35V5C0.797215 2.68828 2.67725 0.800499 5.00184 0.800499H129.998ZM129.998 0H5.00184C2.24512 0 0 2.25436 0 5V35C0 37.7556 2.24512 40 5.00184 40H129.998C132.752 40 135 37.7556 135 35V5C135 2.25436 132.752 0 129.998 0Z" fill="#A6A6A6"/>
<path d="M71.1191 13.2318C70.2176 13.2318 69.4577 12.9151 68.8567 12.2917C68.2606 11.6857 67.9278 10.8503 67.9427 9.99742C67.9427 9.0872 68.2507 8.31663 68.8567 7.70565C69.4552 7.08221 70.2151 6.7655 71.1167 6.7655C72.0082 6.7655 72.7682 7.08221 73.3791 7.70565C73.9851 8.33658 74.2931 9.10715 74.2931 9.99742C74.2831 10.9101 73.9752 11.6807 73.3791 12.2892C72.7806 12.9176 72.0207 13.2318 71.1191 13.2318ZM44.2946 13.2318C43.413 13.2318 42.6481 12.9201 42.0222 12.3042C41.4013 11.6907 41.0859 10.9151 41.0859 9.99992C41.0859 9.08471 41.4013 8.30914 42.0222 7.69568C42.6357 7.07972 43.4006 6.768 44.2946 6.768C44.7317 6.768 45.1564 6.85528 45.5637 7.03234C45.9636 7.20441 46.2889 7.43882 46.5298 7.7256L46.5894 7.79792L45.9164 8.46126L45.8468 8.37897C45.4669 7.9251 44.9577 7.70316 44.2847 7.70316C43.6837 7.70316 43.1597 7.91762 42.7275 8.34156C42.2929 8.768 42.0719 9.3266 42.0719 10.0024C42.0719 10.6782 42.2929 11.2368 42.7275 11.6633C43.1597 12.0872 43.6837 12.3017 44.2847 12.3017C44.9255 12.3017 45.4644 12.0872 45.8841 11.6633C46.1324 11.4139 46.2864 11.0648 46.3411 10.6234H44.1829V9.69069H47.2674L47.2798 9.77548C47.3022 9.93259 47.3245 10.0947 47.3245 10.2443C47.3245 11.1047 47.0663 11.8004 46.5546 12.3141C45.9735 12.9226 45.2135 13.2318 44.2946 13.2318ZM79.9605 13.0997H79.0093L76.0961 8.41887L76.121 9.26176V13.0972H75.1698V6.90017H76.2551L76.2849 6.94755L79.0242 11.3565L78.9993 10.5161V6.90017H79.9605V13.0997ZM63.9716 13.0997H63.008V7.83284H61.3366V6.90017H65.6405V7.83284H63.9691V13.0997H63.9716ZM60.5518 13.0997H59.5906V6.90017H60.5518V13.0997ZM55.1501 13.0997H54.189V7.83284H52.5176V6.90017H56.8215V7.83284H55.1501V13.0997ZM51.9091 13.0897H48.2236V6.90017H51.9091V7.83284H49.1872V9.53358H51.6434V10.4563H49.1872V12.157H51.9091V13.0897ZM69.562 11.6508C69.9916 12.0822 70.5132 12.2992 71.1191 12.2992C71.7425 12.2992 72.2516 12.0872 72.6763 11.6508C73.0985 11.2269 73.3121 10.6707 73.3121 9.99992C73.3121 9.32909 73.0985 8.77049 72.6788 8.34904C72.2491 7.91762 71.7251 7.70066 71.1216 7.70066C70.4983 7.70066 69.9891 7.91264 69.5669 8.34904C69.1447 8.77298 68.9312 9.32909 68.9312 9.99992C68.9312 10.6707 69.1423 11.2293 69.562 11.6508Z" fill="white"/>
<path fill-rule="evenodd" clip-rule="evenodd" d="M67.8528 21.7556C65.5059 21.7556 63.6035 23.5436 63.6035 26.01C63.6035 28.4539 65.5183 30.2643 67.8528 30.2643C70.1998 30.2643 72.1021 28.4638 72.1021 26.01C72.1021 23.5436 70.1998 21.7556 67.8528 21.7556ZM67.8528 28.5785C66.5688 28.5785 65.4636 27.5112 65.4636 26C65.4636 24.4663 66.5713 23.4214 67.8528 23.4214C69.1368 23.4214 70.242 24.4663 70.242 26C70.2445 27.5212 69.1368 28.5785 67.8528 28.5785ZM58.5818 21.7556C56.2348 21.7556 54.3324 23.5436 54.3324 26.01C54.3324 28.4539 56.2472 30.2643 58.5818 30.2643C60.9287 30.2643 62.8311 28.4638 62.8311 26.01C62.8311 23.5436 60.9262 21.7556 58.5818 21.7556ZM58.5818 28.5785C57.2978 28.5785 56.1926 27.5112 56.1926 26C56.1926 24.4663 57.3003 23.4214 58.5818 23.4214C59.8658 23.4214 60.9709 24.4663 60.9709 26C60.9709 27.5212 59.8658 28.5785 58.5818 28.5785ZM47.5499 23.0549V24.8554H51.8539C51.7222 25.8653 51.3894 26.611 50.8803 27.1222C50.2495 27.7556 49.2759 28.4439 47.5598 28.4439C44.9149 28.4439 42.8461 26.2992 42.8461 23.6434C42.8461 20.9875 44.9149 18.8429 47.5598 18.8429C48.9879 18.8429 50.0285 19.409 50.8008 20.1322L52.0724 18.8554C50.9995 17.8229 49.5715 17.0324 47.5698 17.0324C43.9413 17.0324 40.8965 20 40.8965 23.6334C40.8965 27.2768 43.9388 30.2344 47.5698 30.2344C49.5293 30.2344 50.9995 29.591 52.1618 28.379C53.3465 27.1895 53.7215 25.5112 53.7215 24.1571C53.7215 23.7357 53.6892 23.3566 53.6221 23.0349H47.5474C47.5499 23.0324 47.5499 23.0549 47.5499 23.0549ZM92.6733 24.4563C92.3181 23.5012 91.2453 21.7456 89.0448 21.7456C86.8643 21.7456 85.0513 23.4688 85.0513 26C85.0513 28.389 86.8444 30.2544 89.2559 30.2544C91.1931 30.2544 92.3206 29.0648 92.7851 28.3666L91.3471 27.399C90.8702 28.1097 90.2071 28.576 89.2659 28.576C88.3147 28.576 87.6491 28.1421 87.207 27.2868L92.872 24.9302C92.872 24.9327 92.6733 24.4563 92.6733 24.4563ZM86.8966 25.8778C86.8519 24.2344 88.1682 23.399 89.1094 23.399C89.852 23.399 90.4704 23.7656 90.6815 24.2992L86.8966 25.8778ZM82.2946 30H84.1548V17.5012H82.2946V30ZM79.2398 22.7007H79.1728C78.7531 22.1995 77.9558 21.7456 76.9376 21.7456C74.8241 21.7456 72.877 23.6135 72.877 26.0125C72.877 28.4015 74.8142 30.2469 76.9376 30.2469C77.9434 30.2469 78.7531 29.7905 79.1728 29.2793H79.2398V29.8903C79.2398 31.5137 78.3756 32.389 76.9823 32.389C75.8424 32.389 75.1345 31.5661 74.8465 30.8778L73.2297 31.5561C73.6941 32.6783 74.9334 34.0673 76.9798 34.0673C79.1604 34.0673 81.0081 32.778 81.0081 29.6334V22H79.2498V22.7007C79.2523 22.7007 79.2398 22.7007 79.2398 22.7007ZM77.104 28.5785C75.82 28.5785 74.7471 27.5012 74.7471 26.0125C74.7471 24.5112 75.82 23.4239 77.104 23.4239C78.3756 23.4239 79.3615 24.5237 79.3615 26.0125C79.3739 27.5012 78.378 28.5785 77.104 28.5785ZM101.383 17.5012H96.935V30H98.7952V25.2668H101.386C103.444 25.2668 105.468 23.7681 105.468 21.389C105.468 19.01 103.452 17.5012 101.383 17.5012ZM101.438 23.5212H98.7927V19.2319H101.438C102.831 19.2319 103.618 20.3865 103.618 21.3765C103.618 22.3566 102.821 23.5212 101.438 23.5212ZM112.924 21.7332C111.573 21.7332 110.18 22.3342 109.604 23.6434L111.253 24.3317C111.608 23.6434 112.258 23.409 112.946 23.409C113.91 23.409 114.884 23.9875 114.906 25.0199V25.1521C114.573 24.9626 113.843 24.6733 112.969 24.6733C111.188 24.6733 109.383 25.6509 109.383 27.4838C109.383 29.1621 110.843 30.2394 112.47 30.2394C113.719 30.2394 114.407 29.6733 114.836 29.0174H114.903V29.985H116.697V25.197C116.697 22.9676 115.047 21.7332 112.924 21.7332ZM112.691 28.5785C112.082 28.5785 111.23 28.2793 111.23 27.5112C111.23 26.5436 112.293 26.177 113.2 26.177C114.019 26.177 114.407 26.3541 114.894 26.5985C114.759 27.7207 113.816 28.5686 112.691 28.5785ZM123.238 22L121.102 27.4214H121.035L118.822 22H116.821L120.141 29.5785L118.249 33.7905H120.186L125.295 22H123.238ZM106.494 30H108.354V17.5012H106.494V30Z" fill="white"/>
<path fill-rule="evenodd" clip-rule="evenodd" d="M10.392 7.53364C10.1039 7.84536 9.9375 8.32167 9.9375 8.94511V31.0573C9.9375 31.6808 10.1039 32.1571 10.4019 32.4563L10.4789 32.5237L22.8171 20.1346V19.8578L10.469 7.46631L10.392 7.53364Z" fill="url(#paint0_linear_680_367)"/>
<path fill-rule="evenodd" clip-rule="evenodd" d="M26.9219 24.2768L22.8066 20.1447V19.8554L26.9219 15.7232L27.0113 15.7781L31.879 18.5561C33.2723 19.3442 33.2723 20.6459 31.879 21.4439L27.0113 24.222L26.9219 24.2768Z" fill="url(#paint1_linear_680_367)"/>
<path fill-rule="evenodd" clip-rule="evenodd" d="M27.0104 24.2219L22.8058 20L10.3906 32.4663C10.8451 32.9551 11.6076 33.01 12.4594 32.5337L27.0104 24.2219Z" fill="url(#paint2_linear_680_367)"/>
<path fill-rule="evenodd" clip-rule="evenodd" d="M27.0104 15.7781L12.4594 7.47882C11.6076 6.99004 10.8426 7.05737 10.3906 7.54615L22.8058 20L27.0104 15.7781Z" fill="url(#paint3_linear_680_367)"/>
<path opacity="0.2" fill-rule="evenodd" clip-rule="evenodd" d="M26.921 24.1322L12.4692 32.3766C11.662 32.8429 10.9418 32.8105 10.4774 32.3865L10.4004 32.4638L10.4774 32.5312C10.9418 32.9526 11.662 32.9875 12.4692 32.5212L27.0203 24.222L26.921 24.1322Z" fill="black"/>
<path opacity="0.12" fill-rule="evenodd" clip-rule="evenodd" d="M31.8778 21.2993L26.9082 24.1322L26.9976 24.2219L31.8653 21.4439C32.5632 21.0449 32.9059 20.5212 32.9059 20C32.8637 20.4788 32.5086 20.9327 31.8778 21.2993Z" fill="black"/>
<path opacity="0.25" fill-rule="evenodd" clip-rule="evenodd" d="M12.4608 7.62348L31.8795 18.7008C32.5103 19.0574 32.8655 19.5237 32.9201 20C32.9201 19.4788 32.5774 18.9551 31.8795 18.5561L12.4608 7.47884C11.0675 6.67834 9.9375 7.34667 9.9375 8.94517V9.08981C9.9375 7.48881 11.0675 6.83295 12.4608 7.62348Z" fill="white"/>
</g>
<defs>
<linearGradient id="paint0_linear_680_367" x1="21.7104" y1="8.70654" x2="1.93599" y2="13.9538" gradientUnits="userSpaceOnUse">
<stop stop-color="#00A0FF"/>
<stop offset="0.00657" stop-color="#00A1FF"/>
<stop offset="0.2601" stop-color="#00BEFF"/>
<stop offset="0.5122" stop-color="#00D2FF"/>
<stop offset="0.7604" stop-color="#00DFFF"/>
<stop offset="1" stop-color="#00E3FF"/>
</linearGradient>
<linearGradient id="paint1_linear_680_367" x1="33.696" y1="20.0001" x2="9.59826" y2="20.0001" gradientUnits="userSpaceOnUse">
<stop stop-color="#FFE000"/>
<stop offset="0.4087" stop-color="#FFBD00"/>
<stop offset="0.7754" stop-color="#FFA500"/>
<stop offset="1" stop-color="#FF9C00"/>
</linearGradient>
<linearGradient id="paint2_linear_680_367" x1="24.7241" y1="22.2973" x2="8.76136" y2="49.0538" gradientUnits="userSpaceOnUse">
<stop stop-color="#FF3A44"/>
<stop offset="1" stop-color="#C31162"/>
</linearGradient>
<linearGradient id="paint3_linear_680_367" x1="7.26434" y1="0.178805" x2="14.386" y2="12.1287" gradientUnits="userSpaceOnUse">
<stop stop-color="#32A071"/>
<stop offset="0.0685" stop-color="#2DA771"/>
<stop offset="0.4762" stop-color="#15CF74"/>
<stop offset="0.8009" stop-color="#06E775"/>
<stop offset="1" stop-color="#00F076"/>
</linearGradient>
<clipPath id="clip0_680_367">
<rect width="135" height="40" fill="white"/>
</clipPath>
</defs>
</svg>
