<svg width="44" height="44" viewBox="0 0 44 44" fill="none" xmlns="http://www.w3.org/2000/svg">
<rect width="44" height="44" rx="8" fill="#334055"/>
<path d="M33.8908 15.1164C33.8755 13.7177 33.4385 12.3081 32.2003 11.5245C30.9949 10.7606 29.3921 10.7759 28.4437 11.9382C28.3668 12.0323 28.2021 12.1921 28.2504 12.33C28.2987 12.4679 28.5973 12.4372 28.7225 12.4985C28.8207 12.5512 28.9011 12.6317 28.9535 12.7299C29.0058 12.828 29.0278 12.9395 29.0167 13.0501C29.0167 13.3149 29.0167 15.8671 28.9969 19.3824L19.6878 19.3277C19.5514 17.6072 19.6541 15.8763 19.993 14.1839C20.0676 13.8118 20.1532 13.4441 20.2498 13.0764C20.3552 12.6736 20.6472 12.1789 20.6165 11.7631C20.6151 11.7061 20.5959 11.651 20.5616 11.6055C20.4782 11.5026 20.3201 11.5201 20.1906 11.5529C19.3869 11.7654 18.6451 12.1644 18.0257 12.7174C17.572 13.135 17.1887 13.6228 16.8906 14.162C15.6963 16.2961 15.604 19.3167 15.604 19.3167C15.5426 21.2691 15.4657 25.2265 17.5515 29.335C17.5515 29.335 19.0159 32.2154 21.1061 32.9246C21.5189 33.0669 21.6308 32.9728 21.6682 32.9246C21.8306 32.7167 21.4815 32.3577 21.3784 32.2001C21.1893 31.9051 21.0241 31.5955 20.8844 31.2743C20.6019 30.6077 20.3921 29.9127 20.2586 29.2014C19.7919 27.0554 19.5709 24.8635 19.6 22.6678H28.9991V30.935C28.983 31.2032 29.043 31.4706 29.1723 31.7063C29.3016 31.9421 29.495 32.1368 29.7303 32.268C30.0438 32.4089 30.3797 32.494 30.7226 32.5197C31.3162 32.6127 31.9207 32.6127 32.5142 32.5197C32.8646 32.4651 33.1925 32.3134 33.4605 32.0819C33.8755 31.6989 33.882 31.1801 33.882 30.657C33.882 26.4982 33.9194 22.3504 33.915 18.1982C33.9121 17.1797 33.904 16.1524 33.8908 15.1164Z" fill="white"/>
<path d="M20.732 31.8674C16.9058 30.8122 15.4148 26.9884 14.595 23.6724C14.4178 22.9494 14.2472 22.2369 14.1519 21.4993C13.8462 19.2698 13.8595 16.8189 14.626 14.6667C14.0434 14.7921 13.7775 15.2664 13.4363 15.6508C12.1912 17.055 12.0915 18.6952 12.0317 20.325C11.9277 22.7968 12.5008 25.2522 13.6955 27.4544C14.1894 28.3287 14.7918 29.1444 15.4901 29.8845C16.1884 30.6134 16.982 31.2558 17.8518 31.7964C16.4461 31.4731 15.1785 30.7528 14.2184 29.7319C13.8242 29.2595 13.4666 28.7609 13.1483 28.24C12.5412 27.2454 11.7835 26.0064 11.3958 24.3452C11.2873 23.8793 11.2142 23.4049 11.0192 23.3861C10.74 23.359 10.421 24.3034 10.3545 24.5061C10.1797 25.0203 10.0879 25.5563 10.082 26.0962C10.0975 27.3499 11.0923 29.7884 13.4762 31.4432C13.4762 31.4432 15.5588 32.8892 19.1213 32.9999C19.705 33.0042 20.2776 32.8489 20.7696 32.5528C21.0842 32.348 21.2925 32.022 20.732 31.8674Z" fill="white"/>
</svg>
