<svg width="52" height="52" viewBox="0 0 52 52" fill="none" xmlns="http://www.w3.org/2000/svg">
<g id="Bold / List / List Heart Minimalistic">
<g id="Vector">
<path fill-rule="evenodd" clip-rule="evenodd" d="M9.09961 15.5998C9.09961 14.8818 9.68164 14.2998 10.3996 14.2998H39.8663C40.5842 14.2998 41.1663 14.8818 41.1663 15.5998C41.1663 16.3178 40.5842 16.8998 39.8663 16.8998H10.3996C9.68164 16.8998 9.09961 16.3178 9.09961 15.5998ZM9.09961 24.2665C9.09961 23.5485 9.68164 22.9665 10.3996 22.9665H20.7996C21.5176 22.9665 22.0996 23.5485 22.0996 24.2665C22.0996 24.9844 21.5176 25.5665 20.7996 25.5665H10.3996C9.68164 25.5665 9.09961 24.9844 9.09961 24.2665ZM9.09961 32.9331C9.09961 32.2152 9.68164 31.6331 10.3996 31.6331H22.5329C23.2509 31.6331 23.8329 32.2152 23.8329 32.9331C23.8329 33.6511 23.2509 34.2331 22.5329 34.2331H10.3996C9.68164 34.2331 9.09961 33.6511 9.09961 32.9331Z" fill="#F62559"/>
<path d="M27.7329 25.5054C27.7329 28.5432 31.4827 31.7725 33.7824 33.4674C34.5696 34.0476 34.9632 34.3377 35.5329 34.3377C36.1027 34.3377 36.4963 34.0476 37.2835 33.4674C39.5832 31.7726 43.3329 28.5433 43.3329 25.5054C43.3329 20.8649 39.0428 19.1324 35.5329 22.7171C32.0231 19.1324 27.7329 20.8649 27.7329 25.5054Z" fill="#F62559"/>
</g>
</g>
</svg>
