<svg xmlns="http://www.w3.org/2000/svg" width="24" height="24" viewBox="0 0 24 24" fill="none">
    <path d="M18.4001 12C18.4001 15.5346 15.5347 18.4 12.0001 18.4C8.46548 18.4 5.6001 15.5346 5.6001 12C5.6001 8.46535 8.46548 5.59998 12.0001 5.59998C15.5347 5.59998 18.4001 8.46535 18.4001 12Z" stroke="white" stroke-width="1.5"/>
    <path d="M14.4001 12C14.4001 13.3255 13.3256 14.4 12.0001 14.4C10.6746 14.4 9.6001 13.3255 9.6001 12C9.6001 10.6745 10.6746 9.59998 12.0001 9.59998C13.3256 9.59998 14.4001 10.6745 14.4001 12Z" stroke="white" stroke-width="1.5"/>
    <path d="M4.0001 12L5.6001 12" stroke="white" stroke-width="1.5" stroke-linecap="round"/>
    <path d="M18.4 12L20 12" stroke="white" stroke-width="1.5" stroke-linecap="round"/>
    <path d="M12 5.6V4" stroke="white" stroke-width="1.5" stroke-linecap="round"/>
    <path d="M12 20V18.4" stroke="white" stroke-width="1.5" stroke-linecap="round"/>
</svg>
