<svg xmlns="http://www.w3.org/2000/svg" width="34" height="21" viewBox="0 0 34 21" fill="none">
    <g clip-path="url(#clip0_1_42092)">
        <path d="M21.5959 2.24609H12.4028V18.7544H21.5959V2.24609Z" fill="#A9AFB8"/>
        <path d="M12.9871 10.5001C12.9871 7.14595 14.5631 4.17096 16.9854 2.24596C15.2051 0.845959 12.9579 0.00012207 10.5064 0.00012207C4.69871 0.00012207 0 4.69595 0 10.5001C0 16.3043 4.69871 21.0001 10.5064 21.0001C12.9579 21.0001 15.2051 20.1543 16.9854 18.7543C14.5631 16.8585 12.9871 13.8543 12.9871 10.5001Z" fill="#9BA1AC"/>
        <path d="M34 10.5001C34 16.3043 29.3013 21.0001 23.4936 21.0001C21.0421 21.0001 18.7949 20.1543 17.0146 18.7543C19.4661 16.8293 21.0129 13.8543 21.0129 10.5001C21.0129 7.14595 19.437 4.17096 17.0146 2.24596C18.7949 0.845959 21.0421 0.00012207 23.4936 0.00012207C29.3013 0.00012207 34 4.72512 34 10.5001Z" fill="white"/>
    </g>
    <defs>
        <clipPath id="clip0_1_42092">
            <rect width="34" height="21" fill="white"/>
        </clipPath>
    </defs>
</svg>
