<svg width="21" height="20" viewBox="0 0 21 20" fill="none" xmlns="http://www.w3.org/2000/svg">
<g id="quote-icon" clip-path="url(#clip0_1_36656)">
<path id="Vector" opacity="0.418" fill-rule="evenodd" clip-rule="evenodd" d="M9.24032 2.82056V5.22363C7.98494 5.22363 6.81622 5.62774 5.73468 6.43594C4.65263 7.24363 4.11212 8.20876 4.11212 9.3303C4.11212 9.99799 4.37878 10.3318 4.91365 10.3318C5.03365 10.3318 5.27417 10.2852 5.63468 10.1918C6.00853 10.1113 6.30904 10.0713 6.53622 10.0713C7.27058 10.0713 7.96186 10.3688 8.60955 10.9631C9.25724 11.5575 9.58083 12.3754 9.58083 13.417C9.58083 14.4318 9.24699 15.3031 8.57929 16.0308C7.9116 16.759 6.99673 17.1231 5.83468 17.1231C4.44596 17.1231 3.32442 16.5985 2.46955 15.5503C1.61468 14.5021 1.1875 13.0426 1.1875 11.1734C1.1875 8.59594 1.97212 6.57594 3.54135 5.11338C5.11058 3.65184 7.01006 2.88722 9.24032 2.82056ZM20.2378 2.82056V5.22363C19.0495 5.22363 17.8978 5.62107 16.7824 6.41543C15.6675 7.2103 15.1095 8.18158 15.1095 9.3303C15.1095 9.99799 15.3767 10.3318 15.9111 10.3318C16.0311 10.3318 16.2716 10.2852 16.6321 10.1918C17.0065 10.1113 17.3065 10.0713 17.5337 10.0713C18.308 10.0713 19.009 10.379 19.6367 10.9929C20.2644 11.6072 20.5783 12.4154 20.5783 13.417C20.5783 14.4318 20.2449 15.3031 19.5767 16.0308C18.909 16.759 17.9942 17.1231 16.8326 17.1231C15.4434 17.1231 14.3219 16.5985 13.467 15.5503C12.6126 14.5021 12.1849 13.0426 12.1849 11.1734C12.1849 8.59594 12.9696 6.57594 14.5388 5.11338C16.108 3.65184 18.0075 2.88722 20.2378 2.82056Z" fill="#9B9B9B"/>
</g>
<defs>
<clipPath id="clip0_1_36656">
<rect width="20" height="20" fill="white" transform="translate(0.84375)"/>
</clipPath>
</defs>
</svg>
