<svg width="100" height="82" viewBox="0 0 100 82" fill="none" xmlns="http://www.w3.org/2000/svg">
<g filter="url(#filter0_d_363_11507)">
<path d="M12.7062 30.7965C11.7839 24.2336 16.3564 18.1656 22.9193 17.2433L37.7734 15.1557L52.6274 13.0681C59.1903 12.1457 65.2583 16.7183 66.1807 23.2812L67.2941 31.2033C68.2164 37.7663 63.6439 43.8343 57.0809 44.7566L42.2269 46.8442L27.3729 48.9318C20.81 49.8542 14.742 45.2816 13.8196 38.7187L12.7062 30.7965Z" fill="#26D176"/>
<path d="M13.2013 30.727C12.3174 24.4375 16.6995 18.6223 22.9889 17.7384L37.843 15.6508L52.697 13.5632C58.9864 12.6793 64.8016 17.0613 65.6856 23.3508L66.7989 31.2729C67.6829 37.5624 63.3008 43.3776 57.0113 44.2615L42.1573 46.3491L27.3033 48.4367C21.0138 49.3206 15.1987 44.9386 14.3147 38.6491L13.2013 30.727Z" stroke="white" stroke-opacity="0.36"/>
</g>
<defs>
<filter id="filter0_d_363_11507" x="-19.4121" y="-19.0502" width="118.824" height="100.1" filterUnits="userSpaceOnUse" color-interpolation-filters="sRGB">
<feFlood flood-opacity="0" result="BackgroundImageFix"/>
<feColorMatrix in="SourceAlpha" type="matrix" values="0 0 0 0 0 0 0 0 0 0 0 0 0 0 0 0 0 0 127 0" result="hardAlpha"/>
<feOffset/>
<feGaussianBlur stdDeviation="16"/>
<feComposite in2="hardAlpha" operator="out"/>
<feColorMatrix type="matrix" values="0 0 0 0 0.1476 0 0 0 0 0.82 0 0 0 0 0.461387 0 0 0 0.3 0"/>
<feBlend mode="normal" in2="BackgroundImageFix" result="effect1_dropShadow_363_11507"/>
<feBlend mode="normal" in="SourceGraphic" in2="effect1_dropShadow_363_11507" result="shape"/>
</filter>
</defs>
</svg>
