<svg width="89" height="107" viewBox="0 0 89 107" fill="none" xmlns="http://www.w3.org/2000/svg">
<path fill-rule="evenodd" clip-rule="evenodd" d="M54.4841 22.2158L32.2772 44.7233L6.27827 28.6123C2.87151 26.5008 3.56202 21.2916 7.39987 20.17L68.7826 2.18725C72.2733 1.17016 75.5008 4.46507 74.4555 7.99588L56.2428 69.733C55.1022 73.5964 49.9863 74.2654 47.9186 70.8158L32.2772 44.7233" fill="url(#paint0_linear_1322_3157)"/>
<g opacity="0.5" filter="url(#filter0_f_1322_3157)">
<path fill-rule="evenodd" clip-rule="evenodd" d="M51.3013 27.2801L38.0579 40.7028L22.5531 31.0947C20.5214 29.8355 20.9332 26.7289 23.222 26.0601L59.8284 15.3358C61.9101 14.7292 63.8349 16.6942 63.2115 18.7998L52.3502 55.6176C51.6699 57.9216 48.619 58.3206 47.3859 56.2634L38.0579 40.7028" fill="#0062FF"/>
</g>
<g filter="url(#filter1_b_1322_3157)">
<mask id="path-3-outside-1_1322_3157" maskUnits="userSpaceOnUse" x="0" y="16.4072" width="90" height="91" fill="black">
<rect fill="white" y="16.4072" width="90" height="91"/>
<path fill-rule="evenodd" clip-rule="evenodd" d="M63.1344 43.3278L35.7594 71.0734L3.70977 51.2129C-0.489833 48.61 0.361376 42.1884 5.0924 40.8059L80.7606 18.6381C85.0636 17.3843 89.0422 21.446 87.7536 25.7985L65.3024 101.903C63.8963 106.666 57.5898 107.491 55.0409 103.238L35.7594 71.0734"/>
</mask>
<path fill-rule="evenodd" clip-rule="evenodd" d="M63.1344 43.3278L35.7594 71.0734L3.70977 51.2129C-0.489833 48.61 0.361376 42.1884 5.0924 40.8059L80.7606 18.6381C85.0636 17.3843 89.0422 21.446 87.7536 25.7985L65.3024 101.903C63.8963 106.666 57.5898 107.491 55.0409 103.238L35.7594 71.0734" fill="#3EA0FE" fill-opacity="0.35"/>
<path d="M63.8463 44.0302C64.2342 43.637 64.2299 43.0039 63.8368 42.616C63.4436 42.2281 62.8105 42.2324 62.4226 42.6255L63.8463 44.0302ZM35.7594 71.0734L35.2327 71.9235C35.6294 72.1693 36.1434 72.108 36.4713 71.7758L35.7594 71.0734ZM3.70977 51.2129L3.18295 52.0629L3.18303 52.063L3.70977 51.2129ZM5.0924 40.8059L5.37289 41.7658L5.37355 41.7656L5.0924 40.8059ZM80.7606 18.6381L80.4808 17.678L80.4794 17.6784L80.7606 18.6381ZM87.7536 25.7985L86.7948 25.5146L86.7945 25.5156L87.7536 25.7985ZM65.3024 101.903L66.2615 102.187L66.2616 102.186L65.3024 101.903ZM55.0409 103.238L55.8986 102.724L55.8986 102.724L55.0409 103.238ZM36.6171 70.5593C36.3331 70.0856 35.7189 69.9318 35.2453 70.2157C34.7716 70.4997 34.6177 71.1139 34.9017 71.5876L36.6171 70.5593ZM62.4226 42.6255L35.0476 70.3711L36.4713 71.7758L63.8463 44.0302L62.4226 42.6255ZM36.2862 70.2234L4.23652 50.3629L3.18303 52.063L35.2327 71.9235L36.2862 70.2234ZM4.23659 50.3629C0.763196 48.2101 1.48272 42.9026 5.37289 41.7658L4.81191 39.8461C-0.75997 41.4743 -1.74286 49.0099 3.18295 52.0629L4.23659 50.3629ZM5.37355 41.7656L81.0417 19.5977L80.4794 17.6784L4.81125 39.8463L5.37355 41.7656ZM81.0403 19.5981C84.5594 18.5727 87.866 21.8963 86.7948 25.5146L88.7125 26.0824C90.2184 20.9957 85.5678 16.1958 80.4808 17.678L81.0403 19.5981ZM86.7945 25.5156L64.3433 101.621L66.2616 102.186L88.7128 26.0815L86.7945 25.5156ZM64.3434 101.62C63.1809 105.558 57.9944 106.221 55.8986 102.724L54.1832 103.752C57.1853 108.761 64.6117 107.774 66.2615 102.187L64.3434 101.62ZM55.8986 102.724L36.6171 70.5593L34.9017 71.5876L54.1832 103.752L55.8986 102.724Z" fill="url(#paint1_linear_1322_3157)" mask="url(#path-3-outside-1_1322_3157)"/>
</g>
<g filter="url(#filter2_bd_1322_3157)">
<rect width="29.8715" height="5.15025" transform="matrix(0.704703 -0.709503 0.704703 0.709503 40.9062 62.2095)" fill="url(#paint2_linear_1322_3157)"/>
<rect x="0.140941" width="29.6715" height="4.95025" transform="matrix(0.704703 -0.709503 0.704703 0.709503 40.9479 62.3095)" stroke="url(#paint3_linear_1322_3157)" stroke-opacity="0.5" stroke-width="0.2"/>
</g>
<defs>
<filter id="filter0_f_1322_3157" x="6.24219" y="0.224121" width="72.0879" height="72.375" filterUnits="userSpaceOnUse" color-interpolation-filters="sRGB">
<feFlood flood-opacity="0" result="BackgroundImageFix"/>
<feBlend mode="normal" in="SourceGraphic" in2="BackgroundImageFix" result="shape"/>
<feGaussianBlur stdDeviation="7.5" result="effect1_foregroundBlur_1322_3157"/>
</filter>
<filter id="filter1_b_1322_3157" x="-15" y="2.40479" width="119" height="119.596" filterUnits="userSpaceOnUse" color-interpolation-filters="sRGB">
<feFlood flood-opacity="0" result="BackgroundImageFix"/>
<feGaussianBlur in="BackgroundImageFix" stdDeviation="7.5"/>
<feComposite in2="SourceAlpha" operator="in" result="effect1_backgroundBlur_1322_3157"/>
<feBlend mode="normal" in="SourceGraphic" in2="effect1_backgroundBlur_1322_3157" result="shape"/>
</filter>
<filter id="filter2_bd_1322_3157" x="25.9062" y="26.0156" width="54.6797" height="54.8481" filterUnits="userSpaceOnUse" color-interpolation-filters="sRGB">
<feFlood flood-opacity="0" result="BackgroundImageFix"/>
<feGaussianBlur in="BackgroundImageFix" stdDeviation="7.5"/>
<feComposite in2="SourceAlpha" operator="in" result="effect1_backgroundBlur_1322_3157"/>
<feColorMatrix in="SourceAlpha" type="matrix" values="0 0 0 0 0 0 0 0 0 0 0 0 0 0 0 0 0 0 127 0" result="hardAlpha"/>
<feOffset dx="5" dy="5"/>
<feGaussianBlur stdDeviation="5"/>
<feColorMatrix type="matrix" values="0 0 0 0 0.15375 0 0 0 0 0.522433 0 0 0 0 0.9 0 0 0 0.5 0"/>
<feBlend mode="normal" in2="effect1_backgroundBlur_1322_3157" result="effect2_dropShadow_1322_3157"/>
<feBlend mode="normal" in="SourceGraphic" in2="effect2_dropShadow_1322_3157" result="shape"/>
</filter>
<linearGradient id="paint0_linear_1322_3157" x1="74.9434" y1="2" x2="-2.94416" y2="64.8319" gradientUnits="userSpaceOnUse">
<stop stop-color="#39AFFD"/>
<stop offset="1" stop-color="#477FFF"/>
</linearGradient>
<linearGradient id="paint1_linear_1322_3157" x1="14.849" y1="28.6119" x2="70.8024" y2="97.4428" gradientUnits="userSpaceOnUse">
<stop stop-color="white" stop-opacity="0.25"/>
<stop offset="1" stop-color="white" stop-opacity="0"/>
</linearGradient>
<linearGradient id="paint2_linear_1322_3157" x1="27.7536" y1="0.930032" x2="-4.4057" y2="7.01154" gradientUnits="userSpaceOnUse">
<stop stop-color="white"/>
<stop offset="1" stop-color="white" stop-opacity="0.2"/>
</linearGradient>
<linearGradient id="paint3_linear_1322_3157" x1="3.21781" y1="1.72766" x2="28.5576" y2="2.53899" gradientUnits="userSpaceOnUse">
<stop stop-color="white"/>
<stop offset="1" stop-color="white" stop-opacity="0"/>
</linearGradient>
</defs>
</svg>
