<svg width="32" height="18" viewBox="0 0 32 18" fill="none" xmlns="http://www.w3.org/2000/svg">
<path d="M10.6157 4.31077C6.26087 3.21347 3.21751 5.82105 1.34554 2.889C1.33993 2.87718 1.33433 2.87129 1.32872 2.85949C1.27828 2.7769 1.34554 2.65891 1.43521 2.6825C5.29125 3.65003 5.91899 3.04827 7.53875 3.25475C9.03518 3.44354 10.6157 4.31077 10.6157 4.31077Z" fill="#383838"/>
<path d="M11.3836 5.04819C7.54996 4.45234 4.83167 7.46698 2.78034 5.14849C2.77474 5.14259 2.76913 5.13079 2.75792 5.12489C2.70188 5.06 2.74111 4.94201 2.82518 4.94791C6.32814 5.21928 7.15202 4.57034 8.5925 4.50544C9.93754 4.44644 11.3836 5.04819 11.3836 5.04819Z" fill="#383838"/>
<path d="M12.0954 5.99803C8.7493 5.52018 7.31456 8.6823 4.60187 6.74727C4.59627 6.74137 4.59066 6.73548 4.57946 6.72368C4.52341 6.67058 4.54023 6.5172 4.61869 6.5172C7.58358 6.5231 8.35703 5.79745 9.60695 5.63817C11.2996 5.42578 12.0954 5.99803 12.0954 5.99803Z" fill="#383838"/>
<path d="M13.603 7.04228C11.8543 7.23696 12.1291 8.71183 10.2122 8.38146C9.96005 8.34016 10.0161 8.15138 10.1282 8.11599C11.7367 7.63222 11.7367 7.30775 12.314 7.06587C12.8633 6.84759 13.603 7.04228 13.603 7.04228Z" fill="#383838"/>
<path d="M12.8128 6.58798C10.2907 6.64108 9.64615 8.54662 7.52194 7.92717C7.19686 7.83277 7.30896 7.57319 7.48271 7.5496C9.91519 7.14254 10.0328 6.76497 10.9352 6.54078C11.7815 6.3284 12.8128 6.58798 12.8128 6.58798Z" fill="#383838"/>
<path d="M11.3723 4.3049C11.3555 4.33439 11.3163 4.34029 11.2883 4.32849C10.767 4.01582 10.2795 3.65004 9.71904 3.24888C9.19214 2.87721 8.05997 2.36985 5.70599 2.48785C4.58505 2.54684 2.88122 2.78873 1.12133 1.52033C0.695373 1.21945 0.263808 0.706197 0.0396189 0.228346C0.0172015 0.187043 0.00599302 0.133945 0.000388678 0.0808468C-0.00521566 0.0277487 0.0508274 -0.0135374 0.101282 0.00415668C4.45615 1.8448 5.70039 1.12507 8.44109 1.7917C9.5676 2.06899 10.9632 3.79165 11.3668 4.2223C11.3892 4.24001 11.3892 4.27539 11.3723 4.3049Z" fill="#383838"/>
<path d="M15.1612 14.3931C15.1107 14.5581 15.1219 14.7529 15.0211 14.8945C14.8977 15.0833 14.5951 15.101 14.4493 14.9299C14.3541 14.8415 14.3541 14.6999 14.3204 14.5877C14.1019 13.5789 13.8889 12.57 13.6759 11.5553C13.6536 11.4846 13.6759 11.4373 13.7431 11.4079C13.8497 11.3783 13.8609 11.5023 13.8944 11.5731C14.1354 12.2634 14.3596 12.9594 14.6063 13.6496C14.6847 13.8857 14.9482 13.8089 15.1219 13.868C15.3068 13.9918 15.1948 14.2219 15.1612 14.3931Z" fill="#383838"/>
<path d="M15.4469 11.6085C15.4695 11.6734 15.4358 11.7501 15.3685 11.7618C15.3293 11.7677 15.2957 11.7618 15.2845 11.7028C15.1219 11.3607 14.9818 11.0008 14.8136 10.6587C14.5951 10.4639 14.3653 10.2634 14.2308 9.98608C13.9898 9.53772 14.0122 8.95367 14.2812 8.52301C14.3036 8.4935 14.3204 8.45811 14.3429 8.42861C14.3821 8.36963 14.4662 8.38142 14.4885 8.45222C14.5054 8.50531 14.5166 8.55839 14.5391 8.60559C14.8417 9.60262 15.1332 10.6114 15.4469 11.6085Z" fill="#383838"/>
<path d="M15.4918 6.85933C15.4806 7.1248 15.3854 7.37259 15.3237 7.62627C15.318 7.64396 15.3125 7.65576 15.2957 7.66165C15.2565 7.67936 15.2173 7.64986 15.2173 7.60857C15.2228 7.26049 15.3405 6.91833 15.2565 6.57615C15.1332 6.11009 14.8305 5.70303 14.8081 5.20747C14.7968 4.94789 14.8585 4.69421 14.909 4.44053C14.7296 4.04527 14.6455 3.591 14.7407 3.16034C14.7576 3.10725 14.7632 3.10725 14.7913 3.14853C14.9651 3.41402 15.1948 3.6795 15.1948 4.02756C15.1724 4.52312 14.9145 5.01868 15.0883 5.51425C15.2284 5.95671 15.531 6.36967 15.4918 6.85933Z" fill="#383838"/>
<path d="M16.9714 5.1485C16.9603 5.79744 16.4222 6.31659 16.4839 6.97735C16.4839 7.23102 16.5455 7.4906 16.5174 7.74428C16.4782 7.96845 16.2372 8.00386 16.0636 8.05695C15.9627 8.10415 15.8506 7.98026 15.8786 7.87407C15.8786 7.10713 15.8786 6.3343 15.8786 5.56737C15.8898 5.24879 15.9627 4.91251 16.17 4.67064C16.2989 4.51135 16.4334 4.35207 16.5735 4.19278C16.6015 4.15737 16.6183 4.11609 16.6128 4.07478C16.6015 3.9332 16.5735 3.80931 16.6352 3.64412C16.7304 3.43764 16.8538 3.31375 16.9826 3.17806C17.0051 3.15447 17.0387 3.16627 17.0443 3.19576C17.1341 3.61463 17.0443 4.06889 16.8594 4.44646C16.9042 4.67064 16.9714 4.90661 16.9714 5.1485Z" fill="#383838"/>
<path d="M24.0502 2.77692C23.288 3.0011 22.9349 3.27247 22.6323 3.52615C22.6323 3.52615 23.3217 3.27247 24.3136 3.16039C27.1273 2.83592 27.2897 3.93912 30.4396 2.65893C30.5461 2.64124 30.5741 2.72972 30.5461 2.77692C30.1257 3.54386 29.6605 4.39338 27.9007 4.47007C25.9839 4.55267 24.9863 3.74444 23.1871 3.98632C22.0382 4.1397 21.4441 4.51727 21.1133 4.74736C25.0367 3.95682 24.7116 5.77387 28.5564 4.80635C28.6012 4.79454 28.6518 4.78275 28.6966 4.78864C28.7974 4.80044 28.8367 4.93024 28.775 5.00104C28.747 5.03642 28.7078 5.07183 28.6798 5.10722C28.1754 5.67947 27.6428 6.30482 25.8493 6.16323C23.742 5.99804 23.6075 4.62347 19.5833 5.67357C23.4841 5.65588 23.4169 7.00096 26.3538 6.5998C26.4547 6.588 26.5163 6.71779 26.4379 6.78858C26.393 6.82987 26.3425 6.86527 26.3033 6.90068C25.8606 7.26643 25.216 7.7148 24.0054 7.45522C21.4833 6.90068 21.8028 5.80336 18.5577 6.40512C21.0853 6.47591 20.9116 7.50832 23.5066 7.762C23.5066 7.762 23.5066 7.762 23.5121 7.762C23.6523 7.77969 23.6916 7.97437 23.5739 8.05698C23.4841 8.12187 23.3832 8.16906 23.288 8.21036C21.3937 8.98319 20.5137 6.48181 18.1877 7.04226C19.8523 7.19564 19.7177 7.78559 21.2199 8.21626C21.3823 8.26346 21.3657 8.49354 21.1862 8.51124C19.404 8.70002 19.5609 7.43753 18.4679 7.39033C18.1765 7.37853 17.9075 7.54372 17.7617 7.81509C17.3302 8.60562 17.5039 9.35486 17.4758 9.76194C17.5768 10.1867 17.7282 10.5997 17.7337 11.0479C17.7394 11.3607 17.7114 11.6852 17.616 11.986C17.4366 12.6113 17.2573 13.2368 17.0724 13.8681C17.0332 13.9978 17.0387 14.1393 17.0835 14.2632C17.1508 14.4521 17.2181 14.635 17.2462 14.8355C17.3134 15.1717 17.2685 15.5198 17.1564 15.8443C16.9211 16.4519 16.6856 17.0596 16.4502 17.6732C16.4054 17.7852 16.3718 17.9033 16.2933 17.9976C16.1757 18.0213 16.1868 17.862 16.198 17.7852C16.4279 15.5139 16.6464 13.2426 16.8705 10.9713L17.05 10.4286C16.6969 10.7471 16.54 11.1895 16.3101 11.5849C16.2821 11.6792 16.1476 11.6969 16.1196 11.5908C16.142 11.1955 16.1924 10.8003 16.2037 10.4049C16.2372 10.0038 16.2317 9.59674 16.3606 9.21328C16.5063 8.82391 16.7865 8.51124 17.0051 8.17497C17.3638 7.6912 17.6328 7.14254 17.8178 6.56439C17.9299 6.21043 18.1654 5.89776 18.4679 5.70308C19.5161 5.00693 20.1269 4.40518 21.119 3.61465C22.0325 2.889 22.7387 2.32265 23.1424 2.15157C24.9863 1.35513 28.691 2.21057 31.8632 0.0395542C31.9416 -0.00764598 32.0425 0.0867385 31.981 0.222425C31.6839 1.01297 31.3308 1.52032 30.49 1.95689C28.0688 3.21349 25.2889 2.41115 24.0502 2.77692Z" fill="#383838"/>
<path d="M16.6969 4.13969C16.6969 4.13969 16.4894 3.75622 15.985 3.70902C15.6039 3.67364 15.4303 3.80932 15.4303 3.80932C15.4303 3.80932 15.8898 3.66774 16.2486 4.004C16.6072 4.34027 16.411 4.62936 16.411 4.62936C16.411 4.62936 16.8033 4.38747 16.6969 4.13969Z" fill="#383838"/>
<path d="M16.6744 4.08656C16.6744 4.08656 16.411 3.7916 15.8729 3.76799C15.8729 3.76799 16.1924 3.85058 16.2317 4.03346C16.2989 4.38154 16.0075 4.8476 15.9515 5.07179C15.9066 5.27237 16.6744 4.08656 16.6744 4.08656Z" fill="#383838"/>
</svg>
