<svg width="52" height="52" viewBox="0 0 52 52" fill="none" xmlns="http://www.w3.org/2000/svg">
<g id="Bold / Users / Users Group Rounded">
<circle id="Vector" cx="20.8025" cy="15.6003" r="6.93333" fill="#F62559"/>
<ellipse id="Vector_2" cx="20.8013" cy="34.6687" rx="12.1333" ry="6.93333" fill="#F62559"/>
<g id="Vector_3">
<path d="M41.5986 34.6675C41.5986 37.5394 38.0703 39.8675 33.7625 39.8675C35.0317 38.4803 35.9044 36.739 35.9044 34.67C35.9044 32.5985 35.0297 30.8556 33.7581 29.4676C38.0659 29.4676 41.5986 31.7957 41.5986 34.6675Z" fill="#F62559"/>
<path d="M36.3986 15.6014C36.3986 18.4732 34.0705 20.8014 31.1986 20.8014C30.5724 20.8014 29.972 20.6907 29.416 20.4878C30.236 19.0455 30.7044 17.3771 30.7044 15.5994C30.7044 13.823 30.2367 12.1559 29.4178 10.7143C29.9733 10.5118 30.5731 10.4014 31.1986 10.4014C34.0705 10.4014 36.3986 12.7295 36.3986 15.6014Z" fill="#F62559"/>
</g>
</g>
</svg>
