<svg width="50" height="50" viewBox="0 0 50 50" fill="none" xmlns="http://www.w3.org/2000/svg">
<rect width="50" height="50" rx="8" fill="#334055"/>
<g clip-path="url(#clip0_1_42091)">
<path d="M29.5959 17.2461H20.4028V33.7544H29.5959V17.2461Z" fill="#A9AFB8"/>
<path d="M20.9871 25.5001C20.9871 22.146 22.5631 19.171 24.9854 17.246C23.2051 15.846 20.9579 15.0001 18.5064 15.0001C12.6987 15.0001 8 19.696 8 25.5001C8 31.3043 12.6987 36.0001 18.5064 36.0001C20.9579 36.0001 23.2051 35.1543 24.9854 33.7543C22.5631 31.8585 20.9871 28.8543 20.9871 25.5001Z" fill="#9BA1AC"/>
<path d="M42 25.5001C42 31.3043 37.3013 36.0001 31.4936 36.0001C29.0421 36.0001 26.7949 35.1543 25.0146 33.7543C27.4661 31.8293 29.0129 28.8543 29.0129 25.5001C29.0129 22.146 27.437 19.171 25.0146 17.246C26.7949 15.846 29.0421 15.0001 31.4936 15.0001C37.3013 15.0001 42 19.7251 42 25.5001Z" fill="white"/>
</g>
<defs>
<clipPath id="clip0_1_42091">
<rect width="34" height="21" fill="white" transform="translate(8 15)"/>
</clipPath>
</defs>
</svg>
