<svg xmlns="http://www.w3.org/2000/svg" width="50" height="50" viewBox="0 0 50 50" fill="none">
    <rect width="50" height="50" rx="8" fill="#334055"/>
    <path fill-rule="evenodd" clip-rule="evenodd" d="M37.305 25.9497C37.305 30.3601 36.2972 33.6467 34.2832 35.7882C32.2693 37.9298 29.1575 39 24.9623 39C21.0427 39 18.069 37.9294 16.0413 35.7882C14.0135 33.647 12.9998 30.4177 13 26.1004V11.6154C13.0005 11.4524 13.0654 11.2962 13.1806 11.1809C13.2959 11.0656 13.452 11.0006 13.6151 11H20.7221C20.8852 11.0005 21.0415 11.0655 21.1568 11.1808C21.2721 11.2961 21.3371 11.4523 21.3375 11.6154V26.4169C21.3375 28.1799 21.6637 29.5366 22.3273 30.4937C22.6567 30.9304 23.0814 31.286 23.5691 31.5336C24.0568 31.7812 24.5946 31.9142 25.1415 31.9224C25.6883 31.9306 26.2299 31.8138 26.7248 31.581C27.2197 31.3481 27.6549 31.0054 27.9972 30.5788C28.646 29.6807 28.9693 28.3572 28.9671 26.6084V23.8365H37.305V25.9497Z" fill="white"/>
    <path fill-rule="evenodd" clip-rule="evenodd" d="M36.6615 22.2175H28.9688V11.6445C28.9692 11.4737 29.0373 11.31 29.158 11.1893C29.2788 11.0685 29.4424 11.0005 29.6132 11H30.7647C30.7659 12.7337 31.4554 14.3959 32.6818 15.6214C33.9081 16.8469 35.5708 17.5352 37.3045 17.5352H37.3063V22.2175H36.6615Z" fill="white"/>
    <path fill-rule="evenodd" clip-rule="evenodd" d="M32.4023 11H36.661C36.8318 11.0005 36.9954 11.0685 37.1162 11.1893C37.237 11.31 37.305 11.4737 37.3055 11.6445V15.9084C36.0051 15.9084 34.758 15.3919 33.8384 14.4723C32.9189 13.5528 32.4023 12.3057 32.4023 11.0053V11Z" fill="#F4821F"/>
</svg>
